<svg xmlns="http://www.w3.org/2000/svg" viewBox="15 15 75 75"
    xmlns:v="https://vecta.io/nano">
    <path d="M40.959 18.342l-.289.014c-.024-.001-.045-.014-.07-.014-4.487 0-8.164 3.568-8.471 8.069-.529-.103-1.062-.159-1.597-.159-4.82 0-8.741 4.001-8.741 8.92 0 2.249.807 4.346 2.233 5.955-.547.118-1.073.294-1.577.512-3.13 1.281-5.348 4.402-5.348 8.047 0 .011.006.02.006.029 0 .047-.006.092-.006.139 0 4.266 2.95 7.841 6.878 8.714a8.96 8.96 0 0 0-2.187 5.899c0 4.917 3.921 8.918 8.741 8.918a8.64 8.64 0 0 0 1.688-.166l-.002.195c0 4.919 3.921 8.92 8.741 8.92s8.742-4.001 8.742-8.92V27.846c.001-5.063-4.084-9.504-8.741-9.504zm6.742 55.072c0 3.815-3.024 6.92-6.742 6.92s-6.741-3.104-6.741-6.92c0-.458.032-.555.152-.912.04-.117.085-.257.135-.419 2.591-1.487 4.348-4.317 4.348-7.562a1 1 0 1 0-2 0c0 3.68-2.916 6.674-6.5 6.674s-6.5-2.994-6.5-6.674c0-.087-.029-.165-.05-.246.062-2.333 1.24-4.451 3.193-5.691a1 1 0 0 0 .411-1.164c-.148-.436-.572-.727-1.033-.676a6.28 6.28 0 0 1-.534.027c-3.717 0-6.741-3.104-6.741-6.918 0-2.844 1.682-5.291 4.077-6.354.75-.312 1.566-.486 2.423-.486 3.584 0 6.5 2.993 6.5 6.672a1 1 0 1 0 2 0c0-4.238-2.999-7.771-6.945-8.52-.021-.015-.034-.035-.056-.049-2.071-1.263-3.308-3.485-3.308-5.945 0-3.815 3.024-6.92 6.741-6.92.571 0 1.14.104 1.702.258.697 4.07 4.179 7.178 8.366 7.178a1 1 0 1 0 0-2c-3.258 0-5.956-2.475-6.422-5.688.041-.131.065-.268.056-.401-.007-.111-.016-.224-.016-.337 0-3.815 3.024-6.92 6.741-6.92 3.591 0 6.742 3.507 6.742 7.504v45.569zm36.613-23.728c0-3.645-2.218-6.766-5.348-8.047-.504-.218-1.03-.394-1.577-.512 1.427-1.609 2.233-3.706 2.233-5.955 0-4.919-3.921-8.92-8.741-8.92-.578 0-1.154.06-1.723.179-.412-4.53-4.158-8.089-8.704-8.089-4.657 0-8.742 4.441-8.742 9.504v45.568c0 4.919 3.921 8.92 8.742 8.92s8.741-4.001 8.741-8.92l-.002-.195a8.64 8.64 0 0 0 1.688.166c4.82 0 8.741-4.001 8.741-8.918 0-2.215-.79-4.294-2.187-5.899 3.928-.873 6.878-4.448 6.878-8.714 0-.047-.005-.092-.006-.139.001-.01.007-.019.007-.029zM60.455 73.377c-1.108 0-2.01-.901-2.01-2.009s.901-2.01 2.01-2.01a2.01 2.01 0 0 1 2.009 2.01 2.01 2.01 0 0 1-2.009 2.009zm10.466-7.453c-1.108 0-2.01-.901-2.01-2.009s.901-2.01 2.01-2.01a2.01 2.01 0 0 1 2.009 2.01 2.01 2.01 0 0 1-2.009 2.009zm4.652-9.153c-.18 0-.357-.013-.534-.027-.459-.045-.885.239-1.033.676a1 1 0 0 0 .411 1.164c2.007 1.274 3.205 3.474 3.205 5.883 0 3.45-2.477 6.311-5.701 6.827v-3.512c1.726-.447 3.009-2.004 3.009-3.867 0-2.211-1.798-4.01-4.009-4.01s-4.01 1.799-4.01 4.01c0 1.863 1.284 3.42 3.01 3.867v3.524c-.572-.084-1.132-.234-1.67-.467-.357-.153-.772-.088-1.062.171a1 1 0 0 0-.292 1.035c.055.183.104.328.146.456.12.357.152.454.152.912 0 3.466-2.498 6.337-5.741 6.835v-5.014c1.726-.447 3.01-2.003 3.01-3.867 0-2.211-1.798-4.01-4.009-4.01s-4.01 1.799-4.01 4.01c0 1.863 1.284 3.42 3.009 3.867v5.014c-3.244-.498-5.742-3.369-5.742-6.835V52.85h2.874c.447 1.726 2.005 3.01 3.869 3.01 2.211 0 4.009-1.798 4.009-4.009s-1.798-4.01-4.009-4.01c-1.863 0-3.42 1.283-3.868 3.009h-2.875V37.24h6.742 1.314 4.271c.448 1.726 2.004 3.009 3.868 3.009 2.211 0 4.009-1.798 4.009-4.009s-1.798-4.01-4.009-4.01c-1.864 0-3.421 1.284-3.868 3.01h-3.271v-3.982c1.726-.447 3.01-2.003 3.01-3.867 0-2.211-1.798-4.01-4.009-4.01s-4.01 1.799-4.01 4.01c0 1.863 1.284 3.42 3.009 3.867v3.982h-.314-6.742v-7.395c0-3.997 3.15-7.504 6.742-7.504 3.717 0 6.741 3.104 6.741 6.92 0 .113-.009.226-.023.433a1 1 0 0 0 1.354 1 6.58 6.58 0 0 1 2.354-.442c3.717 0 6.741 3.104 6.741 6.92 0 2.46-1.236 4.683-3.308 5.945-.021.014-.035.034-.056.049-3.946.748-6.945 4.281-6.945 8.52a1 1 0 1 0 2 0c0-3.679 2.916-6.672 6.5-6.672.857 0 1.673.175 2.423.485 2.395 1.063 4.077 3.511 4.077 6.354.002 3.815-3.022 6.918-6.739 6.918zm-17.128-4.92c0-1.108.901-2.01 2.01-2.01a2.01 2.01 0 0 1 2.009 2.01 2.01 2.01 0 0 1-2.009 2.009c-1.109-.001-2.01-.902-2.01-2.009zm3.324-22.452c-1.108 0-2.01-.901-2.01-2.009s.901-2.01 2.01-2.01a2.01 2.01 0 0 1 2.009 2.01 2.01 2.01 0 0 1-2.009 2.009zm6.129 6.841c0-1.108.901-2.01 2.01-2.01a2.01 2.01 0 0 1 2.009 2.01 2.01 2.01 0 0 1-2.009 2.009 2.01 2.01 0 0 1-2.01-2.009z" fill="currentColor" />
</svg>