<?xml version="1.0" encoding="UTF-8"?>
<svg viewBox="20 20 520 520" version="1.1"
    xmlns="http://www.w3.org/2000/svg"
    xmlns:xlink="http://www.w3.org/1999/xlink">
    <g>
        <path fill="#000" d="m312.76 196-5.0391-13.215h-0.003906c4.7148-1.8164 9.2969-3.9492 13.723-6.3867 3.6094-1.9805 6.5352-5.0039 8.3984-8.6797 1.1172-2.5508 1.543-5.3516 1.2305-8.1172-0.082031-1.3359-0.34375-2.6562-0.78125-3.9219l17.305-6.1602 49 104.05-24.699 9.6328-33.094-76.887zm113.85-61.602c12.395 8.1719 22.695 19.145 30.07 32.035 10.414 16.406 15.902 30.742 16.016 42.617 0.11328 11.871-7.3359 21.504-22.398 27.328v-0.003906c-13.078 6.0742-28.395 4.7734-40.266-3.4141-12.859-10.141-23.016-23.297-29.566-38.305-8.0625-16.801-11.199-29.793-9.9102-40.039 1.2891-10.246 8.5664-17.191 21.672-21.895l-0.003906-0.003906c11.109-4.7695 23.797-4.1523 34.387 1.6797zm-5.6016 78.398v0.003906c2.2383 2.7383 5.2852 4.6953 8.7031 5.6016 3.418 0.90625 7.0352 0.70703 10.336-0.5625 3.1016-0.82812 5.6992-2.9414 7.1328-5.8125 1.4375-2.8711 1.5703-6.2188 0.37109-9.1953-2.9336-10.008-7.2695-19.547-12.879-28.336-4.7891-8.8789-10.805-17.043-17.863-24.25-2.1328-2.1914-4.8711-3.6953-7.8672-4.3125-2.9961-0.61719-6.1055-0.32422-8.9336 0.84375-5.5508 1.3086-9.0703 6.7812-7.9531 12.375 2.1055 9.5273 5.7148 18.656 10.699 27.047 4.7656 9.6641 10.852 18.613 18.086 26.602zm179.37 11.203-33.602-56h0.003906c-1.1953-2.0391-3.0234-3.6328-5.2109-4.5352l-291.2-123.2c-5.3906-2.3008-11.641-0.054687-14.336 5.1484l-151.2 291.2v0.003907c-1.9219 3.707-1.6172 8.1758 0.78516 11.59l39.199 56c1.25 1.7617 2.9805 3.1211 4.9844 3.9219l291.2 117.6v-0.003907c5.375 2.1797 11.52-0.10547 14.168-5.2617l145.6-285.6c1.75-3.4453 1.6055-7.5508-0.39453-10.863zm-306.88 39.984-20.328-198.24 271.66 114.8-79.746 104.72zm-165.65 76.777 135.52-261.07 19.434 186.93-102.03 96.43-52.695-21.953zm33.602 47.711-21.395-30.074 39.199 16.352 142.07 78.398zm279.83 109.93-1.3984 2.7422-32.594-13.16-215.82-119.55 98.84-93.746 171.14 21.391zm14-27.496 17.918-177.57 79.801-104.95 24.977 41.664z"/>
    </g>
</svg>
