<?xml version="1.0" encoding="utf-8"?>
<svg viewBox="0 0 500 500" xmlns="http://www.w3.org/2000/svg">
  <g transform="matrix(1, 0, 0, 1, -93.69536, -30.577727)">
    <path fill="#000" d="m265.38 179.93-11.199-12.266c4.9336-3.1016 9.6328-6.5664 14.055-10.359 3.4414-2.8477 5.7812-6.8125 6.6094-11.199 0.35938-2.9375-0.21094-5.9141-1.625-8.5117-0.60938-1.3672-1.4219-2.6289-2.4062-3.7539l17.582-10.641 94.754 90.215-23.352 17.137-67.199-67.871zm113.85 1.7344c-3.8086-8.3438-3.9219-19.543-0.39062-33.602 2.1641-7.5508 3.5898-15.297 4.2578-23.125-0.0625-5.8594-2.832-11.359-7.5039-14.898-3.7305-3.0352-8.2266-4.9727-12.992-5.5977-4.7461-0.64062-9.5625 0.41016-13.609 2.9648-5.9922 3.6406-8.1211 7.8398-6.3281 12.602 2.1289 4.3125 5.1445 8.1289 8.8477 11.199l-20.047 12.715c-6.043-5.3359-10.629-12.121-13.328-19.715-3.0234-10.922 2.2383-20.273 15.625-28 9.5469-5.9102 20.641-8.832 31.863-8.3984 10.883 0.48047 21.332 4.4023 29.848 11.199 6.3477 4.4336 10.832 11.055 12.598 18.594 0.87891 6.4922 0.46094 13.098-1.2305 19.43l-2.1289 10.023c-1.0781 4.5039-1.8984 9.0664-2.4648 13.664-0.25781 2.7812 0.066406 5.5859 0.95312 8.2344l43.512-30.688 19.039 14.727-70.559 51.801c-6.9453-6.4492-12.395-14.348-15.961-23.129zm210.73 83.383-48.105-117.6v0.003907c-0.75781-1.8906-2.0156-3.5352-3.6406-4.7617l-128.18-96.039c-2.4414-1.7109-5.4648-2.375-8.3984-1.8477l-176.34 26.43c-2.5508 0.39844-4.8867 1.6641-6.6094 3.5859l-53.48 58.742c-0.89453 1.0117-1.6133 2.168-2.1289 3.418l-58.688 149.63c-0.88672 2.4609-0.88672 5.1523 0 7.6133l18.703 56h0.003906c0.5 1.418 1.2617 2.7266 2.2383 3.8672l117.6 133.56c0.75781 0.85937 1.6445 1.5938 2.6289 2.1836l40.039 24.023h0.003906c1.6875 1.0273 3.6211 1.5859 5.5977 1.625 0.69141 0.054687 1.3828 0.054687 2.0742 0l144.26-26.711h-0.003906c1.1055-0.23828 2.1797-0.61719 3.1914-1.1211l90.723-48.16c2.5977-1.3242 4.5977-3.5859 5.5977-6.3281l53.199-160.33c0.84375-2.543 0.74219-5.3047-0.27734-7.7852zm-71.961-109.42-131.77 107.57-174.05-66.809 23.855-104.11 164.36-25.086zm-334.77-8.5117 38.473-42.281-21.445 93.238-62.273 126.73-11.199-33.938zm-39.816 193.98-0.61328-1.0664 65.574-132.83 173.88 66.191 25.422 157.47-148.4 41.383-1.0078-0.61719zm288.23 125.89-138.43 25.816-20.719-12.434 142.52-39.703 81.762-7.9531zm86.352-47.77-99.121 9.9102-25.59-157.52 131.38-107.02 43.008 105.11z"/>
  </g>
</svg>