<?xml version="1.0" encoding="utf-8"?>
<svg viewBox="0 0 500 500" xmlns="http://www.w3.org/2000/svg">
  <g transform="matrix(1, 0, 0, 1, -96.318826, -28.374014)">
    <path fill="#000" d="m584.64 343.67-78.398-235.2h-0.003907c-1.1484-3.4844-3.9297-6.1797-7.4453-7.2266l-207.2-61.602v0.003907c-3.9766-1.1953-8.2852-0.097657-11.203 2.8555l-173.6 173.6h0.003907c-3.0234 3.0156-4.0664 7.4922-2.6875 11.535l84 246.4c1.3594 4.0742 4.9258 7.0078 9.1836 7.5625l201.6 28h1.5078c2.6992-0.003906 5.3008-0.97656 7.3359-2.7461l173.6-151.2c3.4219-2.9609 4.7227-7.6875 3.3047-11.984zm-377.78 115.53 40.098-195.72 185.25 190.4zm295.79-281.73-251.61 66.75 39.535-177.8zm-263.2 67.871-106.96-23.238 144.03-143.7zm202.27 202.21-187.43-192.58 254.63-67.594 0.67187 1.9609-67.199 257.6zm59.473-283.53-170.91-89.602 156.8 46.535zm-371.5 68.938 107.3 23.352-37.297 181.95zm267.18 253.62-128.07-17.754 152.49-3.4727zm60.762-52.863 58.465-224.9 44.801 134.85zm-154.45-234.92c1.1562-8.0312 4.7773-15.508 10.359-21.395 3.8789-4.4805 7.3281-9.3203 10.305-14.445 1.8984-3.6602 2.043-7.9844 0.39062-11.762-1.2656-3.0156-3.4883-5.5352-6.3281-7.168-2.9727-1.6406-6.4648-2.0586-9.7422-1.1758-5.0391 1.1211-7.7266 3.5859-8.1758 7.3359-0.003907 3.3516 0.67969 6.668 2.0156 9.7461l-16.801 3.9219v-0.003906c-2.207-5.3047-3.0156-11.09-2.3516-16.801 1.457-8.457 7.8398-13.832 19.039-16.297v0.003907c7.8398-2.0117 16.117-1.4023 23.578 1.7344 6.8242 2.9531 12.285 8.3711 15.289 15.176 2.457 4.9844 2.8789 10.727 1.1758 16.016-1.7383 4.6719-4.3008 8.9961-7.5625 12.77l-4.7617 6.0469c-3.0234 3.7344-5.0391 6.4766-6.0469 8.2305-0.82422 1.6523-1.3555 3.4336-1.5664 5.2656l37.07-9.7422 6.2148 13.719-59.582 16.184c-2.1875-5.5078-3.0508-11.457-2.5195-17.359zm83.609-76.664c8.207 6.9688 14.766 15.672 19.207 25.48 5.3164 8.9492 8.1602 19.156 8.2305 29.566-0.55859 7.8398-5.9375 13.215-16.07 15.961-9.0938 3.0312-19.102 1.3047-26.656-4.5938-8.6719-7.5156-15.445-16.973-19.77-27.605-4.9453-8.9805-7.2734-19.164-6.7188-29.402 1.1211-7.2812 6.6641-11.984 16.801-14.168 8.6133-2.3398 17.824-0.58594 24.977 4.7617zm-7.0547 54.098-0.003906-0.003906c2.875 3.9492 7.8672 5.75 12.602 4.5391 2.043-0.37109 3.832-1.6016 4.9023-3.3828 1.0742-1.7812 1.3281-3.9336 0.69922-5.9141-1.543-6.9805-4.0508-13.707-7.4492-19.992-3.0117-6.7148-6.8867-13-11.535-18.703-2.8359-3.4688-7.4023-5.0117-11.762-3.9766-1.9062 0.23047-3.6328 1.2383-4.7695 2.7891-1.1328 1.5469-1.5781 3.5-1.2227 5.3867 1.3008 6.9141 3.6211 13.594 6.8906 19.824 3.0039 6.9609 6.9219 13.496 11.645 19.43z"/>
  </g>
</svg>