<?xml version="1.0" encoding="utf-8"?>
<svg viewBox="0 0 500 500" xmlns="http://www.w3.org/2000/svg">
  <g transform="matrix(1, 0, 0, 1, -110.134393, -29.764691)">
    <path fill="#000" d="m577.81 385.34-248.64-346.53c-2.2734-3.1602-6.0273-4.9141-9.9102-4.6289-3.8867 0.28516-7.3398 2.5703-9.1289 6.0273l-166.43 323.01c-1.9414 3.7852-1.5703 8.3398 0.95313 11.762l107.69 146.83c2.1016 2.8789 5.4531 4.582 9.0156 4.5898 1.418-0.007813 2.8203-0.27344 4.1445-0.78125l307.38-123.2v-0.003907c3.1562-1.2891 5.5508-3.9414 6.5078-7.2109 0.96094-3.2695 0.37891-6.7969-1.5781-9.5859zm-410.98-18.031 141.79-275.24-50.062 400.4zm102.03 132.83 53.984-431.76 228.76 318.42zm172.54-156.8-13.832 4.5938 12.543 35.895-25.367 9.2969-11.477-36.961-53.258 17.75-6.6094-28.949 23.41-95.703 24.359-5.6016 28 80.922 13.496-4.1445zm-45.641-11.648-18.48-59.754-13.605 69.668z"/>
  </g>
</svg>