<?xml version="1.0" encoding="utf-8"?>
<svg viewBox="0 0 500 500" xmlns="http://www.w3.org/2000/svg">
  <path fill="#000" d="M 487.333 249.701 C 487.333 314.964 460.123 375.776 417.425 418.474 C 374.727 461.172 313.915 488.382 248.652 488.382 C 183.388 488.382 122.577 461.172 79.879 418.474 C 37.181 375.776 9.971 314.964 9.971 249.701 C 9.971 184.438 37.181 123.626 79.879 80.928 C 122.577 38.23 183.388 11.02 248.652 11.02 C 313.915 11.02 374.727 38.23 417.425 80.928 C 460.123 123.626 487.333 184.438 487.333 249.701 Z M 404.697 93.656 C 364.267 53.226 310.238 29.02 248.652 29.02 C 187.066 29.02 133.037 53.226 92.607 93.656 C 52.177 134.086 27.971 188.115 27.971 249.701 C 27.971 311.287 52.177 365.316 92.607 405.746 C 133.037 446.176 187.066 470.382 248.652 470.382 C 310.238 470.382 364.267 446.176 404.697 405.746 C 445.127 365.316 469.333 311.287 469.333 249.701 C 469.333 188.115 445.127 134.086 404.697 93.656 Z" />
</svg>