<svg xmlns="http://www.w3.org/2000/svg" viewBox="0 0 512 512" style="height: 512px; width: 512px;">
    <path d="M0 0h512v512H0z" fill="#000" fill-opacity="0"></path>
    <g class="" transform="translate(0,0)" style="">
        <path d="M91.773 25.994C189.313 167.854 104.52 157.17 65.64 169.2c38.8 52.918 16.554 102.644-44.503 133.788 52.5 21.085 122.25 30.452 42.027 141.707 79.578-45.024 134.707-48.82 127.13 53.15 57.795-58.495 133.043-87.973 208.054-38.53-8.558-73.916 12.66-106.284 86.88-74.4-79.58-73.01-46.696-116.363.458-158.83-81.492-3.232-92.92-65.497-89.922-139.92-49.183 53.518-86.497 47.756-104.002-56.962-33.806 76.857-79.335 125.91-199.99-3.21z" fill="#000" fill-opacity="1"></path>
    </g>
</svg>