<svg class="SvgBoxWithoutLid" width="590" height="542" viewBox="-295 0 590 542" xmlns="http://www.w3.org/2000/svg"><path class="bend" fill="none" stroke="#ff00ff" stroke-width="0.1" d="M -91,0 v 80"></path><path class="bend" fill="none" stroke="#ff00ff" stroke-width="0.1" d="M 91,0 v 80"></path><path class="bend" fill="none" stroke="#ff00ff" stroke-width="0.1" d="M -92,80 h 184"></path><path class="bend" fill="none" stroke="#ff00ff" stroke-width="0.1" d="M -92,80 v 120"></path><path class="bend" fill="none" stroke="#ff00ff" stroke-width="0.1" d="M -171,80 v 120"></path><path class="bend" fill="none" stroke="#ff00ff" stroke-width="0.1" d="M -173,81 v 118"></path><path class="bend" fill="none" stroke="#ff00ff" stroke-width="0.1" d="M 92,80 v 120"></path><path class="bend" fill="none" stroke="#ff00ff" stroke-width="0.1" d="M 171,80 v 120"></path><path class="bend" fill="none" stroke="#ff00ff" stroke-width="0.1" d="M 173,81 v 118"></path><path class="bend" fill="none" stroke="#ff00ff" stroke-width="0.1" d="M -91,200 h 182"></path><path class="bend" fill="none" stroke="#ff00ff" stroke-width="0.1" d="M -91,200 v 80"></path><path class="bend" fill="none" stroke="#ff00ff" stroke-width="0.1" d="M 91,200 v 80"></path><path class="cut" fill="none" stroke="#ff0000" stroke-width="0.1" d="M -91,0 h -60 v 79 h 59 l 1,1 h -80 l -2,1 h -80 v 118 h 80 l 2,1 h 80 l -1,1 h -59 v 79 h 60 l 1,1 h 180 l 1,-1 h 60 v -79 h -59 l -1,-1 h 80 l 2,-1 h 80 v -118 h -80 l -2,-1 h -80 l 1,-1 h 59 v -79 h -60h -180"></path></svg>