<?xml version="1.0" standalone="no"?>
<!DOCTYPE svg PUBLIC "-//W3C//DTD SVG 20010904//EN"
 "http://www.w3.org/TR/2001/REC-SVG-20010904/DTD/svg10.dtd">
<svg version="1.0" xmlns="http://www.w3.org/2000/svg"
 width="437.664597pt" height="439.101255pt" viewBox="0 0 437.664597 439.101255"
 preserveAspectRatio="xMidYMid meet">
<metadata>
Created by potrace 1.16, written by Peter Selinger 2001-2019
</metadata>
<g transform="translate(-37.982576,476.655671) scale(0.100000,-0.100000)"
fill="#000000" stroke="none">
<path d="M2324 4760 c-225 -25 -507 -111 -726 -221 -595 -297 -1042 -886
-1177 -1549 -65 -319 -53 -668 35 -968 l15 -54 36 28 c105 80 267 68 347 -26
15 -18 63 -107 107 -197 73 -152 85 -169 159 -245 44 -45 82 -79 85 -76 3 3
-8 34 -25 69 -80 171 -56 327 68 440 29 27 57 49 62 49 4 0 -1 -28 -11 -62
-26 -83 -40 -228 -30 -310 14 -105 37 -161 124 -291 88 -134 107 -172 107
-214 -1 -28 -1 -28 -20 8 -26 49 -117 131 -230 208 -158 108 -209 149 -372
308 -113 110 -173 160 -216 182 -61 31 -149 58 -158 49 -8 -9 74 -206 135
-323 281 -544 771 -944 1376 -1123 187 -56 275 -66 550 -66 273 -1 327 6 540
65 361 101 739 327 995 595 219 230 415 536 509 798 l22 59 -43 -7 c-24 -3
-76 -23 -117 -42 -62 -30 -100 -62 -230 -188 -168 -163 -217 -203 -385 -316
-121 -80 -184 -138 -215 -196 -19 -36 -20 -37 -21 -13 0 42 25 104 76 182 135
207 149 248 148 417 0 114 -12 191 -41 266 -9 25 23 4 76 -48 112 -111 129
-272 48 -441 -32 -65 -32 -65 -7 -47 43 31 130 121 162 167 17 25 48 85 69
134 57 131 76 166 116 210 53 59 105 82 183 82 69 0 114 -17 176 -68 l31 -25
22 75 c101 340 103 671 6 1051 -108 421 -309 763 -634 1077 -322 310 -698 502
-1146 583 -103 18 -467 27 -581 14z m333 -220 c59 -69 115 -89 375 -140 211
-41 412 -119 457 -176 32 -41 29 -108 -9 -167 -33 -52 -44 -55 -98 -28 -46 23
-208 75 -284 91 -32 6 -58 15 -58 20 0 4 11 15 23 23 35 23 53 71 38 103 -17
39 -88 65 -174 66 -155 0 -273 -75 -337 -215 l-26 -57 -13 37 c-19 53 -63 115
-112 156 -102 88 -298 109 -379 41 -41 -35 -39 -69 5 -121 l34 -41 -62 -12
c-75 -15 -201 -54 -279 -86 -32 -13 -62 -24 -67 -24 -6 0 -24 24 -41 53 -55
96 -33 165 70 217 98 49 251 96 445 136 102 21 200 46 226 60 56 28 120 99
150 165 l23 49 29 -55 c16 -30 45 -73 64 -95z m-791 -855 c-4 -20 -12 -38 -19
-40 -7 -1 -49 -14 -94 -28 l-83 -25 0 73 0 72 73 26 c110 39 111 38 121 -4 5
-21 5 -54 2 -74z m1482 89 c109 -31 112 -35 112 -115 0 -69 -1 -70 -22 -63
-13 4 -57 18 -98 30 l-75 22 -3 71 c-3 82 -4 81 86 55z m-478 -188 c138 -17
344 -58 421 -84 111 -37 183 -97 204 -172 6 -19 -7 -10 -53 38 -33 34 -66 62
-73 62 -17 0 -6 -133 22 -275 51 -257 5 -458 -109 -481 -35 -7 -40 3 -22 50 8
23 8 25 -8 15 -32 -20 -53 -58 -63 -116 -18 -108 -44 -133 -68 -67 -25 70
-145 166 -244 195 -25 7 -22 1 31 -56 50 -53 63 -74 73 -119 12 -54 12 -54 65
-71 31 -10 75 -15 104 -13 28 1 50 0 50 -4 0 -13 -38 -28 -72 -28 -38 0 -192
67 -292 128 -39 23 -81 42 -95 42 -24 0 -24 1 9 18 29 14 35 23 37 52 1 19 -1
26 -4 15 -7 -27 -23 -35 -51 -28 -16 4 -34 -3 -60 -24 -82 -66 -124 -67 -196
-9 -34 29 -52 36 -85 36 -34 0 -43 4 -51 23 -8 20 -9 20 -9 -8 -1 -42 11 -57
55 -65 l39 -8 -35 -1 c-20 -1 -61 -16 -95 -36 -106 -62 -229 -122 -269 -133
-30 -9 -46 -8 -72 3 -44 18 -45 37 -2 25 34 -10 57 -7 130 18 41 14 47 20 53
51 10 54 39 103 84 144 23 20 41 39 41 42 0 11 -27 4 -77 -19 -67 -32 -138
-98 -175 -163 -25 -45 -32 -51 -48 -43 -12 7 -21 26 -25 58 -12 82 -25 121
-51 149 l-25 28 5 -27 c3 -14 9 -34 13 -44 5 -15 2 -16 -28 -11 -48 10 -94 63
-115 134 -22 74 -22 222 0 320 20 93 42 300 32 310 -4 4 -36 -22 -72 -59 -67
-68 -82 -66 -40 7 28 47 81 87 144 109 84 30 321 74 537 99 85 11 432 6 535
-7z m-1310 -357 c35 -26 50 -30 81 -26 l37 5 -10 -32 c-19 -57 -29 -61 -87
-31 -35 17 -65 25 -89 23 -34 -3 -37 -6 -40 -35 -2 -20 8 -58 27 -100 l29 -67
-5 83 -6 84 28 -7 c15 -4 38 -14 51 -22 22 -15 22 -18 9 -37 -15 -22 -21 -67
-8 -67 4 0 22 14 40 32 18 18 33 28 33 22 0 -29 -63 -364 -83 -444 -80 -310
-214 -502 -408 -581 -79 -33 -233 -33 -306 0 -57 25 -87 52 -102 93 l-10 27
34 -15 c85 -35 217 -7 296 64 l49 44 -37 51 c-31 43 -38 60 -41 112 -7 101 36
163 164 235 32 19 79 54 105 79 39 39 48 54 55 96 l7 50 13 -30 c16 -37 18
-114 3 -152 -15 -41 -45 -70 -134 -128 -115 -75 -128 -92 -133 -170 -2 -35 -1
-76 2 -90 6 -25 8 -24 88 43 165 136 206 181 251 271 40 81 42 89 42 175 -1
100 -15 156 -71 268 -43 85 -46 143 -9 182 34 37 80 35 135 -5z m2144 0 c39
-46 34 -87 -23 -207 -60 -126 -79 -217 -62 -301 14 -72 59 -162 111 -226 40
-48 251 -227 259 -220 11 11 19 97 11 129 -11 49 -46 86 -147 153 -94 62 -118
89 -134 146 -12 44 -8 84 12 132 l12 30 8 -47 c10 -67 37 -98 131 -158 149
-95 198 -157 198 -253 0 -41 -6 -63 -29 -99 -16 -25 -34 -49 -41 -53 -21 -13
68 -93 128 -115 63 -24 158 -26 207 -6 41 17 43 11 12 -35 -33 -50 -120 -89
-211 -96 -247 -19 -447 157 -550 484 -49 158 -106 415 -118 534 l-4 36 28 -20
c15 -11 28 -24 28 -29 0 -4 5 -8 10 -8 16 0 12 46 -5 60 -21 17 -19 23 14 43
33 20 68 22 73 6 5 -14 -7 -114 -16 -144 -4 -11 12 18 34 64 22 46 40 93 40
106 0 45 -64 47 -135 5 -27 -16 -53 -30 -57 -30 -9 0 -28 34 -38 70 -8 27 -7
28 29 24 27 -4 48 2 86 25 66 40 105 40 139 0z m-1156 -772 c7 -78 -71 -128
-197 -126 l-56 0 45 13 c26 6 62 22 82 34 44 27 98 87 98 108 0 32 25 6 28
-29z m69 -1 c35 -49 103 -94 172 -112 l46 -13 -65 0 c-84 -1 -130 12 -163 47
-29 31 -49 84 -40 108 8 22 17 17 50 -30z m-495 -113 c43 -9 78 -20 78 -24 0
-26 -72 -97 -125 -124 -57 -29 -66 -30 -185 -30 -92 0 -132 4 -150 15 -24 14
-23 15 41 21 85 9 152 43 209 107 25 27 47 50 50 51 2 1 40 -7 82 -16z m996
-29 c49 -66 109 -100 201 -115 l76 -13 -35 -14 c-26 -10 -65 -13 -151 -10
-104 4 -122 7 -175 33 -49 25 -64 39 -87 83 l-28 52 28 1 c15 0 46 6 68 14 61
20 67 18 103 -31z m-513 -8 c39 -17 65 -60 65 -108 0 -26 -9 -43 -39 -72 l-38
-38 -7 56 c-12 90 -46 87 -56 -5 l-5 -51 -26 21 c-15 11 -34 36 -43 56 -22 45
-9 93 35 130 35 28 64 31 114 11z m-693 -278 c-12 -33 -16 -76 -17 -179 0
-147 -7 -156 -41 -55 -29 86 -8 202 47 257 28 28 30 24 11 -23z m1341 -33 c30
-57 29 -174 -1 -232 -12 -24 -24 -43 -27 -43 -2 0 -1 39 2 88 5 81 -9 184 -33
247 l-7 20 22 -20 c13 -11 33 -38 44 -60z m-610 -130 c73 -129 94 -239 63
-327 -16 -45 -98 -190 -104 -184 -2 3 4 39 13 81 24 108 17 258 -17 340 -14
34 -30 60 -39 60 -8 0 -24 -26 -38 -60 -33 -80 -41 -246 -17 -349 9 -38 15
-70 13 -72 -2 -2 -22 26 -46 61 -60 92 -74 141 -69 234 5 83 28 144 110 288
l41 73 22 -33 c12 -17 42 -68 68 -112z m305 -291 c6 -94 -17 -147 -95 -217
-32 -29 -86 -80 -120 -114 -60 -59 -63 -61 -63 -35 1 50 38 111 124 201 93 99
116 146 116 245 l1 51 16 -30 c9 -16 18 -62 21 -101z m-707 -57 c12 -23 56
-78 99 -123 55 -58 82 -94 93 -129 26 -74 21 -83 -21 -39 -21 21 -73 70 -115
107 -118 105 -147 185 -111 303 l18 59 8 -68 c4 -37 18 -87 29 -110z m353
-417 c39 -102 99 -182 177 -234 l48 -32 -50 -23 c-64 -31 -133 -106 -171 -187
l-31 -66 -35 72 c-41 84 -101 149 -166 182 l-47 24 50 33 c28 18 66 51 86 75
34 42 105 182 105 207 0 21 16 -2 34 -51z"/>
<path d="M2531 4424 c-27 -34 -26 -45 3 -74 29 -26 48 -22 72 15 16 25 16 27
-3 53 -27 37 -47 38 -72 6z"/>
<path d="M1990 3339 c-34 -14 -88 -56 -100 -78 -9 -18 -6 -19 48 -14 55 5 65
2 152 -41 51 -25 100 -46 109 -46 14 -1 14 -2 1 -9 -8 -5 -59 -11 -113 -14
-54 -3 -105 -11 -113 -17 -19 -16 -18 -40 2 -40 8 0 26 -13 40 -29 29 -35 114
-58 155 -42 23 9 23 10 -7 10 -78 2 -167 59 -120 77 8 3 25 -6 39 -20 37 -37
94 -36 132 1 l27 28 23 -29 c15 -19 29 -27 39 -23 22 9 20 24 -9 52 -31 32
-15 32 46 -2 41 -22 48 -30 43 -47 -6 -18 -5 -19 9 -8 10 8 25 11 38 7 21 -7
22 -5 16 31 -4 22 -7 44 -7 50 0 6 -11 16 -23 21 -19 9 -23 17 -20 40 5 41 -7
52 -71 69 -31 8 -92 30 -136 49 -81 36 -149 44 -200 24z"/>
<path d="M2950 3316 c-68 -30 -114 -44 -192 -61 -21 -4 -28 -11 -28 -28 0 -40
-12 -66 -33 -73 -21 -7 -32 5 -54 61 -11 28 -12 28 -12 6 -1 -13 10 -39 24
-57 21 -28 24 -40 19 -74 -4 -25 -3 -40 4 -40 6 0 12 6 15 13 3 8 11 6 27 -8
20 -17 23 -18 17 -2 -11 30 4 46 56 62 70 21 75 19 44 -13 -49 -51 -28 -72 25
-27 l31 26 11 -23 c22 -44 146 -30 146 17 0 8 7 15 16 15 24 0 13 -40 -17 -62
-14 -11 -47 -23 -75 -28 -49 -9 -49 -9 18 -7 61 3 71 6 101 35 18 18 40 32 49
32 21 0 19 49 -2 52 -8 1 -22 2 -30 4 -8 1 -62 2 -120 3 l-105 1 76 34 c42 18
92 42 110 54 49 30 97 36 147 19 39 -14 42 -14 30 2 -81 108 -163 127 -298 67z"/>
</g>
</svg>
