<svg width="200" height="50" viewBox="0 0 200 50" fill="none" xmlns="http://www.w3.org/2000/svg">
<g clip-path="url(#clip0_603_1212)">
<path d="M22.2108 0.074604C19.6403 0.35928 16.4187 1.33855 13.9168 2.59111C7.11932 5.97302 2.01267 12.6799 0.470391 20.2294C-0.272187 23.8618 -0.135096 27.8359 0.87024 31.2519L1.0416 31.8668L1.45288 31.548C2.65243 30.637 4.50316 30.7737 5.4171 31.844C5.58846 32.049 6.13683 33.0624 6.6395 34.0873C7.47347 35.8181 7.61056 36.0117 8.45596 36.8771C8.95862 37.3895 9.39275 37.7766 9.42702 37.7425C9.46129 37.7083 9.33563 37.3553 9.14141 36.9568C8.22747 35.0096 8.50165 33.2332 9.91826 31.9465C10.2496 31.6391 10.5694 31.3886 10.6266 31.3886C10.6723 31.3886 10.6151 31.7074 10.5009 32.0946C10.2039 33.0397 10.0439 34.6908 10.1582 35.6245C10.3181 36.8201 10.5809 37.4578 11.5748 38.9381C12.5801 40.4639 12.7972 40.8966 12.7972 41.3749C12.7858 41.6937 12.7858 41.6937 12.5687 41.2838C12.2717 40.7258 11.2321 39.7921 9.94111 38.9153C8.13608 37.6855 7.55344 37.2187 5.69128 35.4081C4.40034 34.1556 3.71488 33.5862 3.22364 33.3357C2.52676 32.9827 1.52142 32.6753 1.41861 32.7778C1.32721 32.8803 2.264 35.1235 2.96088 36.4557C6.1711 42.6502 11.769 47.205 18.6807 49.2432C20.817 49.8809 21.8224 49.9948 24.964 49.9948C28.0829 50.0061 28.6998 49.9264 31.1331 49.2546C35.2573 48.1045 39.5757 45.5311 42.5003 42.4794C45.0022 39.8604 47.2414 36.376 48.3152 33.3927L48.5666 32.7208L48.0753 32.8005C47.8012 32.8347 47.2071 33.0624 46.7387 33.2788C46.0304 33.6204 45.5963 33.9848 44.1111 35.4195C42.1918 37.2756 41.632 37.7311 39.7128 39.0178C38.3304 39.9287 37.6107 40.5892 37.2565 41.2496C37.0395 41.6596 37.0281 41.6709 37.0166 41.3977C37.0166 40.9194 37.3022 40.2134 37.8849 39.3252C39.4272 36.9681 39.5871 36.5013 39.5757 34.5769C39.5757 33.2788 39.4386 32.402 39.1073 31.548C39.0045 31.2633 39.37 31.5024 39.9755 32.0946C41.255 33.3585 41.4493 35.1918 40.5239 37.1162C40.1583 37.8563 40.1583 37.8563 40.4439 37.6514C40.9352 37.2984 41.9291 36.2735 42.2947 35.7498C42.4889 35.4651 42.843 34.7819 43.0829 34.2239C43.7341 32.7322 43.9512 32.3337 44.4081 31.8327C45.0136 31.1608 45.6077 30.8989 46.4988 30.8989C47.2871 30.8989 47.8012 31.0925 48.5095 31.6732L48.8636 31.9579L49.1149 31.1039C50.2688 27.2324 50.2916 23.4633 49.1835 19.1363C47.9497 14.3424 45.6534 10.4481 41.9405 6.87258C38.2619 3.34264 33.9664 1.15636 28.8483 0.234024C27.6716 0.0290565 23.5131 -0.0734253 22.2108 0.074604ZM26.0151 2.57972C26.6891 3.36542 27.3289 3.59315 30.2992 4.17389C32.7097 4.64075 35.006 5.52893 35.5201 6.17798C35.8856 6.64484 35.8514 7.40776 35.4172 8.07959C35.0402 8.67171 34.9146 8.70587 34.2977 8.39843C33.7721 8.13652 31.9214 7.54441 31.0532 7.36222C30.6876 7.2939 30.3906 7.19141 30.3906 7.13448C30.3906 7.08893 30.5162 6.96368 30.6533 6.87258C31.0532 6.61068 31.2588 6.06411 31.0874 5.69973C30.8932 5.25564 30.0821 4.95958 29.0996 4.9482C27.3289 4.9482 25.9808 5.80221 25.2496 7.39638L24.9526 8.04543L24.8041 7.62411C24.587 7.02061 24.0844 6.31462 23.5246 5.84776C22.3593 4.84571 20.1201 4.60659 19.1948 5.3809C18.7264 5.77944 18.7492 6.16659 19.2519 6.75871L19.6403 7.22557L18.932 7.36222C18.0752 7.53302 16.6357 7.97711 15.7446 8.34149C15.3791 8.48952 15.0363 8.61478 14.9792 8.61478C14.9107 8.61478 14.705 8.34149 14.5108 8.01127C13.8825 6.91813 14.1338 6.13243 15.3105 5.54031C16.4301 4.98236 18.178 4.44717 20.3943 3.9917C21.5596 3.75257 22.6792 3.4679 22.9762 3.30848C23.616 2.98965 24.3471 2.18118 24.6898 1.42965L24.9526 0.871689L25.2839 1.49797C25.4667 1.83958 25.798 2.32921 26.0151 2.57972ZM16.9785 12.3155C16.9328 12.5433 16.8414 12.7482 16.7614 12.771C16.6814 12.7824 16.2016 12.9304 15.6875 13.0898L14.7393 13.3745V12.5433V11.7234L15.5733 11.4273C16.8299 10.9832 16.8414 10.9946 16.9556 11.4729C17.0127 11.712 17.0127 12.0878 16.9785 12.3155ZM33.9092 11.3021C35.1545 11.6551 35.1888 11.7006 35.1888 12.6116C35.1888 13.3973 35.1773 13.4087 34.9374 13.3289C34.7889 13.2834 34.2862 13.124 33.8178 12.9873L32.961 12.7368L32.9267 11.9284C32.8925 10.9946 32.8811 11.006 33.9092 11.3021ZM28.4484 13.4428C30.025 13.6364 32.3784 14.1033 33.2581 14.3993C34.5261 14.8206 35.3487 15.5038 35.5886 16.3579C35.6572 16.5742 35.5086 16.4717 34.9831 15.9252C34.6061 15.538 34.2291 15.2192 34.1491 15.2192C33.9549 15.2192 34.0806 16.7336 34.4005 18.3506C34.9831 21.277 34.4576 23.5658 33.1552 23.8277C32.7554 23.9074 32.6983 23.7935 32.9039 23.2583C32.9953 22.9964 32.9953 22.9737 32.8125 23.0875C32.4469 23.3153 32.207 23.748 32.0928 24.4084C31.8871 25.6382 31.5901 25.9229 31.3159 25.1713C31.0303 24.3742 29.6594 23.2811 28.5284 22.9509C28.2428 22.8712 28.2771 22.9395 28.8826 23.5885C29.4538 24.192 29.6023 24.4312 29.7165 24.9436C29.8536 25.5585 29.8536 25.5585 30.4591 25.7521C30.8133 25.8659 31.3159 25.9229 31.6472 25.9001C31.9671 25.8887 32.2184 25.9001 32.2184 25.9456C32.2184 26.0937 31.7843 26.2645 31.3959 26.2645C30.9618 26.2645 29.2024 25.5015 28.06 24.8069C27.6145 24.545 27.1346 24.3287 26.9747 24.3287C26.7005 24.3287 26.7005 24.3173 27.0775 24.1237C27.4088 23.9643 27.4774 23.8618 27.5002 23.5316C27.5116 23.3153 27.4888 23.2355 27.4545 23.3608C27.3746 23.6683 27.1918 23.7593 26.8719 23.6796C26.6891 23.6341 26.4835 23.7138 26.1864 23.9529C25.2496 24.7045 24.7698 24.7158 23.9473 24.0554C23.5588 23.7252 23.3532 23.6455 22.9762 23.6455C22.5878 23.6455 22.485 23.5999 22.3936 23.3836C22.3022 23.1558 22.2908 23.1558 22.2908 23.4747C22.2793 23.9529 22.4164 24.1237 22.9191 24.2148L23.3646 24.3059L22.9648 24.3173C22.7363 24.3287 22.2679 24.4995 21.8795 24.7272C20.6685 25.4332 19.2633 26.1164 18.8063 26.2417C18.4636 26.3442 18.2808 26.3328 17.9838 26.2075C17.4811 26.0026 17.4697 25.7862 17.961 25.9229C18.3494 26.0367 18.6121 26.0026 19.4461 25.7179C19.9145 25.5585 19.983 25.4902 20.0516 25.1372C20.1658 24.5223 20.4971 23.9643 21.0112 23.4974C21.274 23.2697 21.4796 23.0534 21.4796 23.0192C21.4796 22.8939 21.1712 22.9737 20.6 23.2355C19.8345 23.5999 19.0234 24.3515 18.6007 25.0916C18.3151 25.604 18.2351 25.6723 18.0523 25.5813C17.9153 25.5015 17.8124 25.2852 17.7667 24.9208C17.6296 23.9871 17.4811 23.543 17.1841 23.2242L16.8985 22.9053L16.9556 23.2128C16.9899 23.3722 17.0584 23.5999 17.1041 23.7138C17.1613 23.8846 17.127 23.896 16.7843 23.8391C16.2359 23.7252 15.7104 23.1217 15.4705 22.3132C15.2191 21.4706 15.2191 19.7853 15.4705 18.6694C15.6989 17.6104 15.9503 15.2533 15.836 15.1395C15.7903 15.0939 15.4248 15.39 15.0135 15.8113C14.2481 16.5856 14.0767 16.5628 14.5565 15.7316C14.8764 15.1964 15.4819 14.7409 16.2016 14.4904C17.1613 14.1488 19.8688 13.6478 22.3364 13.3631C23.3075 13.2379 27.2717 13.2948 28.4484 13.4428ZM13.4826 17.5079C13.8825 17.804 14.0539 17.8495 14.408 17.804L14.8307 17.7471L14.7165 18.1114C14.4994 18.7605 14.3852 18.806 13.7225 18.4644C13.3227 18.2709 12.98 18.1798 12.7058 18.2025C12.3174 18.2367 12.2831 18.2709 12.2488 18.6011C12.226 18.8288 12.3402 19.2615 12.5573 19.7398L12.8886 20.5027L12.8315 19.5576L12.7629 18.6011L13.0828 18.6808C13.2542 18.7263 13.5169 18.8402 13.6654 18.9313C13.9168 19.1021 13.9168 19.1363 13.7682 19.3526C13.5969 19.6031 13.5283 20.1155 13.6769 20.1155C13.7225 20.1155 13.9282 19.9561 14.1338 19.7512C14.3395 19.5462 14.5108 19.4323 14.5108 19.5006C14.5108 19.8309 13.7911 23.6455 13.5626 24.5564C12.6487 28.0864 11.1178 30.2727 8.9015 31.1722C7.99899 31.548 6.23965 31.548 5.40568 31.1722C4.75449 30.8875 4.41176 30.5801 4.2404 30.1132L4.12616 29.8058L4.51458 29.9766C5.48565 30.3751 6.99365 30.0563 7.89617 29.2478L8.45596 28.7468L8.03326 28.1661C7.67911 27.6764 7.59914 27.4829 7.56486 26.8907C7.48489 25.7407 7.97614 25.0347 9.43844 24.2148C9.80402 23.9985 10.341 23.5999 10.638 23.3153C11.0835 22.8712 11.1864 22.7004 11.2663 22.2221L11.3463 21.6528L11.4948 21.9944C11.6776 22.4157 11.7004 23.2925 11.5291 23.7252C11.3577 24.192 11.015 24.5223 9.99823 25.1827C8.68444 26.0367 8.53593 26.2303 8.47881 27.1185C8.45596 27.517 8.46738 27.9839 8.50165 28.1433C8.5702 28.428 8.59305 28.4166 9.50699 27.6537C11.392 26.105 11.8604 25.5926 12.3745 24.5678C12.8315 23.6455 12.8543 23.5544 12.8543 22.5751C12.8429 21.4364 12.6829 20.7988 12.0432 19.5234C11.5519 18.5555 11.5177 17.8951 11.9404 17.451C12.3288 17.0297 12.8543 17.0525 13.4826 17.5079ZM37.9763 17.5079C38.4218 18.0317 38.3647 18.4986 37.7135 19.865C37.0281 21.2998 36.811 22.336 37.0052 23.2925C37.1652 24.1123 37.6792 25.1372 38.2733 25.8659C38.7303 26.4125 41.1408 28.4508 41.2322 28.371C41.3579 28.2458 41.4493 27.2665 41.3579 26.9021C41.2322 26.3442 40.8323 25.9229 39.6785 25.1599C38.6046 24.4539 38.3304 24.1465 38.1476 23.4974C38.0105 22.9964 38.0562 22.541 38.2847 21.9944L38.4218 21.6528L38.5132 22.188C38.6275 22.9509 38.9359 23.3039 40.0098 23.9871C41.712 25.0688 42.2718 25.7748 42.2718 26.868C42.2718 27.3348 42.2033 27.5853 41.9405 27.9953C41.7577 28.2799 41.5521 28.5532 41.4721 28.5988C41.2322 28.7468 42.249 29.6578 42.9344 29.9083C43.6541 30.1816 44.7394 30.2043 45.2992 29.9766C45.7676 29.783 45.7905 29.8513 45.4363 30.3751C45.0593 30.9445 44.0654 31.3886 43.0258 31.4683C40.204 31.6846 37.9192 29.6805 36.7425 25.957C36.1827 24.1579 35.5315 21.2315 35.3944 19.8764L35.3487 19.4665L35.6686 19.6942C35.8399 19.8195 35.9885 19.9675 35.9885 20.0244C35.9885 20.07 36.0456 20.1155 36.1027 20.1155C36.2855 20.1155 36.2398 19.5917 36.0456 19.4323C35.8057 19.2388 35.8285 19.1704 36.2055 18.9427C36.5825 18.715 36.9824 18.6922 37.0395 18.8744C37.0966 19.0338 36.9595 20.1725 36.8567 20.5141C36.811 20.6393 36.9938 20.3091 37.2451 19.7853C37.4965 19.2615 37.7021 18.7263 37.7021 18.5783C37.7021 18.0659 36.9709 18.0431 36.1598 18.5214C35.8514 18.7036 35.5543 18.863 35.5086 18.863C35.4058 18.863 35.1888 18.4758 35.0745 18.0659C34.9831 17.7585 34.9945 17.7471 35.4058 17.7926C35.7143 17.8382 35.9542 17.7698 36.3883 17.5079C37.1423 17.0525 37.5879 17.0525 37.9763 17.5079ZM24.7698 26.2986C24.8498 27.1868 23.9587 27.7561 22.5192 27.7334H21.8795L22.3936 27.5853C22.6906 27.517 23.1019 27.3348 23.3304 27.1982C23.833 26.8907 24.4499 26.2075 24.4499 25.9684C24.4499 25.604 24.7355 25.9001 24.7698 26.2986ZM25.5581 26.31C25.9579 26.868 26.7348 27.3804 27.5231 27.5853L28.0486 27.7334H27.306C26.3464 27.7448 25.8209 27.5967 25.4438 27.1982C25.1125 26.8452 24.8841 26.2417 24.9869 25.9684C25.0783 25.7179 25.1811 25.7748 25.5581 26.31ZM19.9031 27.5967C20.3943 27.6992 20.7942 27.8245 20.7942 27.87C20.7942 28.1661 19.9716 28.9745 19.3661 29.282C18.715 29.6122 18.6121 29.6236 17.2526 29.6236C16.2016 29.6236 15.7446 29.5781 15.539 29.4528C15.2648 29.2934 15.2762 29.282 16.0074 29.2137C16.9785 29.1112 17.7439 28.724 18.3951 27.9953C18.6807 27.6878 18.932 27.4259 18.9663 27.4145C18.9891 27.4032 19.4233 27.4943 19.9031 27.5967ZM31.2817 27.927C31.8414 28.6785 32.5269 29.0656 33.5779 29.2364L34.4462 29.3845L34.0463 29.5439C33.7493 29.6578 33.3037 29.6919 32.3213 29.6578C31.1331 29.6122 30.9275 29.5781 30.322 29.282C29.7622 28.9973 29.5909 28.8379 29.3281 28.3369L29.0082 27.7448L29.3281 27.7334C29.4995 27.7334 29.8536 27.6651 30.105 27.574C30.8018 27.3462 30.8704 27.369 31.2817 27.927ZM25.421 28.018C25.8665 28.2116 26.1636 28.7013 26.1636 29.2478C26.1636 29.5439 26.0608 29.7375 25.718 30.0677L25.2839 30.5004L25.2039 29.8627C25.0668 28.8379 24.6784 28.8721 24.5642 29.9197L24.5071 30.5004L24.21 30.2613C24.0387 30.136 23.8216 29.8513 23.7188 29.6236C23.4674 29.1112 23.616 28.5646 24.1186 28.1433C24.5185 27.8245 24.8498 27.7903 25.421 28.018ZM17.504 31.1836C17.3669 31.5594 17.3212 32.049 17.3098 33.2219C17.3098 34.8957 17.2298 34.9982 16.8414 33.8481C16.5101 32.8689 16.75 31.548 17.3783 30.9217C17.6982 30.6029 17.721 30.6484 17.504 31.1836ZM32.8239 31.5594C33.1667 32.2084 33.1552 33.5407 32.8125 34.2011C32.6754 34.4744 32.5383 34.6908 32.5041 34.6908C32.4812 34.6908 32.4926 34.2467 32.5269 33.6887C32.584 32.7664 32.4241 31.5935 32.1499 30.8762L32.0699 30.6484L32.3213 30.8762C32.4698 31.0014 32.6983 31.3089 32.8239 31.5594ZM25.8551 33.0397C26.6891 34.5086 26.929 35.7611 26.5749 36.7632C26.3921 37.2756 25.4553 38.9267 25.3867 38.8584C25.3639 38.8242 25.4324 38.4143 25.5352 37.936C25.8094 36.7063 25.7295 34.9982 25.341 34.0645C25.1811 33.6773 24.9983 33.3813 24.8955 33.3813C24.8041 33.3813 24.6213 33.6773 24.4614 34.0645C24.0844 34.9754 23.993 36.8657 24.2671 38.0385C24.37 38.4712 24.4385 38.8356 24.4157 38.8584C24.3928 38.8811 24.1643 38.5623 23.8901 38.1638C23.2047 37.1162 23.0448 36.5582 23.1019 35.4992C23.159 34.5541 23.4218 33.8595 24.3585 32.2198L24.8269 31.3886L25.0783 31.7643C25.2154 31.9579 25.5581 32.5386 25.8551 33.0397ZM29.3395 36.3533C29.4081 37.4236 29.1453 38.0271 28.2542 38.8242C27.8886 39.1544 27.2717 39.7352 26.8833 40.1223C26.1979 40.7941 26.1636 40.8169 26.1636 40.5209C26.175 39.9515 26.5977 39.2569 27.5802 38.2321C28.6426 37.1048 28.9054 36.5696 28.9054 35.4423L28.9168 34.8616L29.0996 35.2032C29.2024 35.3854 29.3053 35.9092 29.3395 36.3533ZM21.2626 37.0023C21.3997 37.2642 21.9023 37.8905 22.3936 38.4029C23.0219 39.0633 23.3304 39.4733 23.456 39.8718C23.7531 40.7144 23.6959 40.8169 23.2161 40.3159C22.9762 40.0768 22.3821 39.5188 21.9023 39.0975C20.5543 37.9019 20.223 36.9909 20.6342 35.6473L20.8399 34.9754L20.9313 35.7498C20.977 36.1711 21.1369 36.7404 21.2626 37.0023ZM25.2953 41.7506C25.7409 42.9121 26.4263 43.8231 27.3174 44.4152L27.8658 44.7796L27.2946 45.0415C26.5634 45.3945 25.7752 46.2485 25.341 47.1708L24.9869 47.9223L24.587 47.1025C24.1186 46.146 23.4332 45.4058 22.6906 45.0301L22.1537 44.7568L22.7249 44.381C23.0448 44.1761 23.4789 43.8003 23.7074 43.527C24.0958 43.0488 24.9069 41.4546 24.9069 41.1699C24.9069 40.9308 25.0897 41.1927 25.2953 41.7506Z" fill="black"/>
<path d="M24.5756 3.90061C24.2672 4.28776 24.2786 4.41302 24.6099 4.74324C24.9412 5.0393 25.1583 4.99375 25.4324 4.57243C25.6152 4.28776 25.6152 4.26499 25.3982 3.96893C25.0897 3.54761 24.8612 3.53623 24.5756 3.90061Z" fill="black"/>
<path d="M18.3951 16.2554C18.0067 16.4148 17.3898 16.8931 17.2527 17.1436C17.1499 17.3486 17.1842 17.36 17.8011 17.303C18.4294 17.2461 18.5436 17.2802 19.5376 17.7699C20.1202 18.0546 20.68 18.2937 20.7828 18.2937C20.9427 18.3051 20.9427 18.3165 20.7942 18.3962C20.7028 18.4531 20.1202 18.5214 19.5033 18.5556C18.8864 18.5897 18.3037 18.6808 18.2123 18.7492C17.9953 18.9313 18.0067 19.2046 18.2352 19.2046C18.3266 19.2046 18.5322 19.3527 18.6922 19.5349C19.0235 19.9334 19.9945 20.1953 20.4629 20.0131C20.7257 19.9106 20.7257 19.8992 20.383 19.8992C19.4919 19.8765 18.4751 19.2274 19.012 19.0224C19.1034 18.9883 19.2976 19.0908 19.4576 19.2502C19.8803 19.6715 20.5315 19.6601 20.9656 19.2388L21.274 18.92L21.5368 19.2502C21.7082 19.4665 21.8681 19.5576 21.9824 19.5121C22.2337 19.4096 22.2108 19.2388 21.8795 18.92C21.5254 18.5556 21.7082 18.5556 22.405 18.9427C22.8734 19.1932 22.9534 19.2843 22.8963 19.4779C22.8277 19.6829 22.8392 19.6943 22.9991 19.569C23.1134 19.4779 23.2847 19.4438 23.4332 19.4893C23.6731 19.569 23.6846 19.5462 23.616 19.1363C23.5703 18.8858 23.5361 18.6353 23.5361 18.567C23.5361 18.4986 23.4104 18.3848 23.2733 18.3278C23.0562 18.2254 23.0105 18.1343 23.0448 17.8724C23.1019 17.4055 22.9648 17.2802 22.2337 17.0867C21.8795 16.9956 21.1827 16.7451 20.68 16.5287C19.7546 16.1188 18.9778 16.0277 18.3951 16.2554Z" fill="black"/>
<path d="M29.3623 16.5173C28.5855 16.8589 28.06 17.0183 27.1689 17.2119C26.929 17.2574 26.849 17.3371 26.849 17.5307C26.849 17.9862 26.7119 18.2822 26.472 18.3619C26.2321 18.4416 26.1064 18.305 25.8551 17.6673C25.7294 17.3485 25.718 17.3485 25.718 17.599C25.7066 17.747 25.8322 18.0431 25.9922 18.2481C26.2321 18.5669 26.2664 18.7035 26.2093 19.0907C26.1636 19.3754 26.175 19.5462 26.2549 19.5462C26.3235 19.5462 26.392 19.4778 26.4263 19.3981C26.4606 19.307 26.552 19.3298 26.7348 19.4892C26.9633 19.6828 26.9975 19.6942 26.929 19.512C26.8033 19.1704 26.9747 18.9882 27.5687 18.806C28.3684 18.5669 28.4256 18.5897 28.0714 18.954C27.5116 19.5348 27.7515 19.7739 28.357 19.2615L28.7112 18.9654L28.8368 19.2273C29.0882 19.7284 30.5048 19.5689 30.5048 19.0338C30.5048 18.9427 30.5847 18.863 30.6876 18.863C30.9617 18.863 30.8361 19.3184 30.4934 19.5689C30.3334 19.6942 29.9564 19.8308 29.6365 19.8878C29.0767 19.9903 29.0767 19.9903 29.8422 19.9675C30.5391 19.9333 30.6533 19.8992 30.996 19.5689C31.2017 19.364 31.453 19.2046 31.5558 19.2046C31.7957 19.2046 31.7729 18.6466 31.533 18.6124C31.4416 18.6011 31.2816 18.5897 31.1902 18.5669C31.0988 18.5555 30.4819 18.5441 29.8193 18.5327L28.6198 18.5213L29.488 18.1342C29.9678 17.9292 30.5391 17.6559 30.7447 17.5193C31.3045 17.1777 31.8528 17.1094 32.4241 17.3029C32.8696 17.4624 32.9039 17.4624 32.7668 17.2802C31.8414 16.0504 30.9046 15.834 29.3623 16.5173Z" fill="black"/>
</g>
<path d="M56.475 35.1C56.7917 34.9833 57.1667 34.7583 57.6 34.425C58.0333 34.1083 58.475 33.725 58.925 33.275C59.375 32.8417 59.8 32.375 60.2 31.875C60.6167 31.375 60.9583 30.8833 61.225 30.4C61.2417 30.2 61.2583 30.0333 61.275 29.9C61.2917 29.7667 61.3 29.6167 61.3 29.45C61.3167 29.2833 61.325 29.0833 61.325 28.85C61.3417 28.6 61.35 28.2667 61.35 27.85C61.35 27.25 61.3333 26.6583 61.3 26.075C61.2833 25.4917 61.2333 24.95 61.15 24.45C61.0833 23.95 60.9833 23.5083 60.85 23.125C60.7167 22.7417 60.55 22.4583 60.35 22.275C60.75 21.6417 61.0167 20.8833 61.15 20C61.2833 19.1 61.35 18.175 61.35 17.225C61.35 16.525 61.3333 15.8833 61.3 15.3C61.2667 14.7167 61.2417 14.1417 61.225 13.575C61.0083 13.575 60.825 13.5583 60.675 13.525C60.5417 13.475 60.375 13.425 60.175 13.375C59.9917 13.325 59.7417 13.275 59.425 13.225C59.125 13.175 58.7167 13.1333 58.2 13.1C58.3333 12.85 58.4833 12.6083 58.65 12.375C58.8167 12.1417 58.9917 11.9083 59.175 11.675C59.225 11.6083 59.3333 11.5667 59.5 11.55C59.6833 11.5333 59.9 11.525 60.15 11.525C60.4333 11.525 60.7833 11.5417 61.2 11.575C61.6167 11.5917 62.05 11.6167 62.5 11.65C62.95 11.6667 63.3917 11.6833 63.825 11.7C64.2583 11.7167 64.625 11.725 64.925 11.725C65.4917 11.725 65.85 11.675 66 11.575C65.95 11.7083 65.8583 11.8583 65.725 12.025C65.6083 12.175 65.4833 12.3417 65.35 12.525C65.2167 12.7083 65.1 12.9 65 13.1C64.9 13.2833 64.85 13.475 64.85 13.675C64.85 14.175 64.8333 14.7167 64.8 15.3C64.7667 15.8667 64.75 16.5 64.75 17.2C64.75 18.15 64.8083 19.075 64.925 19.975C65.0417 20.875 65.2833 21.6417 65.65 22.275C65.3833 22.925 65.1917 23.725 65.075 24.675C64.975 25.6083 64.925 26.6 64.925 27.65C64.925 28.55 64.9667 29.2917 65.05 29.875C65.15 30.4417 65.325 30.8 65.575 30.95V31.075C65.1583 31.3083 64.6083 31.6417 63.925 32.075C63.2417 32.5083 62.525 32.975 61.775 33.475C61.0417 33.9917 60.3167 34.5083 59.6 35.025C58.8833 35.5417 58.2833 36 57.8 36.4L56.475 35.1ZM67.7273 18.925C68.0773 18.8917 68.469 18.8417 68.9023 18.775C69.3357 18.6917 69.769 18.6 70.2023 18.5C70.6357 18.4 71.0357 18.3 71.4023 18.2C71.769 18.0833 72.0607 17.975 72.2773 17.875C72.244 18.1583 72.2107 18.4167 72.1773 18.65C72.1607 18.8833 72.144 19.1333 72.1273 19.4C72.1273 19.6667 72.119 19.9583 72.1023 20.275C72.1023 20.5917 72.1023 20.9667 72.1023 21.4V26.45L73.1523 27.25L75.5523 26.2V22.3C75.5523 21.7333 75.5357 21.2667 75.5023 20.9C75.4857 20.5333 75.4357 20.2417 75.3523 20.025C75.269 19.8083 75.1523 19.65 75.0023 19.55C74.869 19.4333 74.6773 19.3417 74.4273 19.275V18.95C75.2273 18.9 76.0107 18.7833 76.7773 18.6C77.5607 18.4167 78.2357 18.1833 78.8023 17.9V23.8C78.8023 24.5833 78.819 25.225 78.8523 25.725C78.8857 26.2083 78.944 26.6 79.0273 26.9C79.1107 27.2 79.219 27.4167 79.3523 27.55C79.5023 27.6833 79.694 27.775 79.9273 27.825V28.1C79.7107 28.2 79.469 28.35 79.2023 28.55C78.9357 28.75 78.6773 28.975 78.4273 29.225C78.1773 29.475 77.9523 29.7333 77.7523 30C77.5523 30.25 77.4023 30.4833 77.3023 30.7C76.7523 30.2333 76.3523 29.8 76.1023 29.4C75.869 29 75.7107 28.5083 75.6273 27.925C75.1273 28.175 74.6857 28.4083 74.3023 28.625C73.9357 28.8417 73.594 29.0583 73.2773 29.275C72.9773 29.4917 72.694 29.7167 72.4273 29.95C72.1773 30.1833 71.919 30.4333 71.6523 30.7C71.319 30.4 71.019 30.15 70.7523 29.95C70.5023 29.7333 70.2523 29.5417 70.0023 29.375C69.769 29.2083 69.5273 29.0583 69.2773 28.925C69.044 28.775 68.7773 28.6167 68.4773 28.45C68.544 28.35 68.6023 28.125 68.6523 27.775C68.719 27.425 68.7773 27 68.8273 26.5C68.8773 26 68.9107 25.4667 68.9273 24.9C68.9607 24.3167 68.9773 23.7583 68.9773 23.225C68.9773 22.625 68.9523 22.1083 68.9023 21.675C68.869 21.225 68.8023 20.8417 68.7023 20.525C68.6023 20.2083 68.469 19.95 68.3023 19.75C68.1523 19.5333 67.9523 19.35 67.7023 19.2L67.7273 18.925ZM85.2842 19.925C85.2508 20.1917 85.2258 20.45 85.2092 20.7C85.2092 20.95 85.2092 21.2417 85.2092 21.575C85.2092 21.9083 85.2175 22.2417 85.2342 22.575C85.2508 22.9083 85.2758 23.2083 85.3092 23.475C85.6258 23.3583 85.9508 23.2583 86.2842 23.175C86.6342 23.0917 87.0175 23.0167 87.4342 22.95C87.8675 22.8833 88.3508 22.825 88.8842 22.775C89.4175 22.725 90.0425 22.675 90.7592 22.625C90.7092 23.2083 90.6842 24.0583 90.6842 25.175C90.6842 26.125 90.7008 26.975 90.7342 27.725C90.7675 28.4583 90.8258 29.0167 90.9092 29.4C90.3925 29.4 89.8675 29.4333 89.3342 29.5C88.8008 29.5667 88.2925 29.6583 87.8092 29.775C87.3258 29.8917 86.8758 30.0333 86.4592 30.2C86.0425 30.3667 85.6925 30.55 85.4092 30.75C85.2092 30.5667 84.9842 30.4083 84.7342 30.275C84.5008 30.1417 84.2175 30.0333 83.8842 29.95C83.5508 29.85 83.1592 29.775 82.7092 29.725C82.2592 29.6583 81.7258 29.6083 81.1092 29.575C81.1425 29.0583 81.2425 28.5333 81.4092 28C81.5925 27.45 81.8175 27.0083 82.0842 26.675C82.4675 26.675 83.0675 26.8167 83.8842 27.1C84.7008 27.3833 85.7842 27.825 87.1342 28.425C87.2342 27.8917 87.3092 27.4083 87.3592 26.975C87.4092 26.525 87.4342 26.0583 87.4342 25.575C87.4342 25.275 87.4342 25.0583 87.4342 24.925C87.4342 24.7917 87.4258 24.6667 87.4092 24.55C86.6758 24.6167 85.8258 24.7417 84.8592 24.925C83.8925 25.0917 82.9842 25.2917 82.1342 25.525C82.2008 24.8083 82.2425 24.2583 82.2592 23.875C82.2758 23.475 82.2842 23.1167 82.2842 22.8C82.2842 22.05 82.2425 21.3917 82.1592 20.825C82.0925 20.2583 81.9758 19.7333 81.8092 19.25C82.4425 19.25 83.1258 19.1417 83.8592 18.925C84.5925 18.7083 85.5092 18.3667 86.6092 17.9C87.6592 18.4333 89.2258 18.775 91.3092 18.925C91.0092 19.6417 90.6675 20.1667 90.2842 20.5C89.9008 20.8167 89.4258 20.975 88.8592 20.975C88.6092 20.975 88.3258 20.95 88.0092 20.9C87.6925 20.85 87.3675 20.775 87.0342 20.675C86.7175 20.575 86.4008 20.4667 86.0842 20.35C85.7842 20.2167 85.5175 20.075 85.2842 19.925ZM97.5082 20.4V25.925C97.5082 26.7917 97.7165 27.4417 98.1332 27.875C98.5665 28.3083 99.0999 28.5417 99.7332 28.575V28.925C99.4499 29.025 99.1499 29.15 98.8332 29.3C98.5165 29.45 98.2082 29.6083 97.9082 29.775C97.6082 29.925 97.3249 30.0833 97.0582 30.25C96.7915 30.4167 96.5832 30.5667 96.4332 30.7C96.0499 30.4667 95.6582 30.2417 95.2582 30.025C94.8582 29.8083 94.5249 29.6333 94.2582 29.5V20.2H92.1832V19.925C92.9165 19.6417 93.6082 19.2083 94.2582 18.625V17.825C94.2582 17.6917 94.2415 17.4833 94.2082 17.2C94.1915 16.9 94.1665 16.6 94.1332 16.3C94.0999 15.9833 94.0582 15.7 94.0082 15.45C93.9582 15.1833 93.8999 15.0083 93.8332 14.925C94.5832 14.875 95.2749 14.725 95.9082 14.475C96.5415 14.225 97.2165 13.9083 97.9332 13.525C97.8665 13.6917 97.8082 13.95 97.7582 14.3C97.7082 14.65 97.6582 15.025 97.6082 15.425C97.5749 15.8083 97.5499 16.1833 97.5332 16.55C97.5165 16.9 97.5082 17.15 97.5082 17.3V18.625H101.033V18.725C100.767 19.0083 100.525 19.325 100.308 19.675C100.108 20.025 99.9665 20.3667 99.8832 20.7L97.5082 20.4ZM121.24 12.925C121.29 13.725 121.357 14.4 121.44 14.95C121.54 15.4833 121.657 16 121.79 16.5C121.923 16.9833 122.082 17.5083 122.265 18.075C122.448 18.625 122.657 19.3167 122.89 20.15C122.723 20.4833 122.573 20.9083 122.44 21.425C122.323 21.925 122.215 22.45 122.115 23C122.032 23.55 121.965 24.0917 121.915 24.625C121.882 25.1583 121.865 25.625 121.865 26.025C121.865 26.3417 121.873 26.65 121.89 26.95C121.923 27.25 121.982 27.5333 122.065 27.8C121.098 27.9833 120.257 28.4 119.54 29.05C118.823 29.6833 118.115 30.45 117.415 31.35C116.065 30.7667 114.498 30.35 112.715 30.1C110.948 29.8667 109.057 29.75 107.04 29.75C107.223 29.65 107.457 29.4667 107.74 29.2C108.023 28.9167 108.298 28.6 108.565 28.25C108.832 27.8833 109.057 27.5083 109.24 27.125C109.44 26.725 109.54 26.3583 109.54 26.025C109.54 25.6917 109.532 25.3167 109.515 24.9C109.515 24.4833 109.482 24.0583 109.415 23.625C109.365 23.1917 109.273 22.775 109.14 22.375C109.023 21.9583 108.857 21.6 108.64 21.3C108.823 21.1 108.973 20.8 109.09 20.4C109.207 19.9833 109.29 19.5333 109.34 19.05C109.407 18.55 109.448 18.0417 109.465 17.525C109.482 16.9917 109.49 16.5083 109.49 16.075C109.49 15.5417 109.448 15.0833 109.365 14.7C109.282 14.3167 109.132 13.9667 108.915 13.65C108.715 13.3167 108.432 12.9917 108.065 12.675C107.715 12.3583 107.265 11.9917 106.715 11.575C107.898 11.575 108.957 11.575 109.89 11.575C110.84 11.5583 111.715 11.5417 112.515 11.525C113.315 11.4917 114.065 11.45 114.765 11.4C115.465 11.3333 116.165 11.2417 116.865 11.125C117.382 11.4417 118.04 11.7667 118.84 12.1C119.64 12.4333 120.44 12.7083 121.24 12.925ZM118.44 26.4C118.44 26.0333 118.465 25.55 118.515 24.95C118.565 24.3333 118.632 23.7167 118.715 23.1C118.815 22.4667 118.923 21.875 119.04 21.325C119.173 20.775 119.315 20.3667 119.465 20.1C119.348 19.7667 119.215 19.35 119.065 18.85C118.915 18.3333 118.765 17.8 118.615 17.25C118.465 16.6833 118.332 16.125 118.215 15.575C118.098 15.0083 118.015 14.5083 117.965 14.075C117.698 14.075 117.357 14.0917 116.94 14.125C116.54 14.1417 116.098 14.1833 115.615 14.25C115.148 14.3 114.673 14.375 114.19 14.475C113.723 14.5583 113.29 14.6667 112.89 14.8C112.857 15.55 112.832 16.4167 112.815 17.4C112.798 18.3667 112.79 19.4 112.79 20.5C112.79 21.5667 112.807 22.6917 112.84 23.875C112.89 25.0417 112.965 26.25 113.065 27.5C113.232 27.55 113.448 27.6083 113.715 27.675C113.998 27.7417 114.29 27.8083 114.59 27.875C114.89 27.9417 115.182 28.0083 115.465 28.075C115.765 28.125 116.023 28.1667 116.24 28.2C116.473 27.8167 116.79 27.4667 117.19 27.15C117.59 26.8333 118.007 26.5833 118.44 26.4ZM136.144 30.7C135.827 30.5 135.527 30.3083 135.244 30.125C134.96 29.9583 134.677 29.8 134.394 29.65C134.11 29.4833 133.81 29.3167 133.494 29.15C133.194 28.9667 132.869 28.775 132.519 28.575H132.344L130.219 30.7H129.969C129.485 30.3667 128.86 30.0417 128.094 29.725C127.327 29.4083 126.569 29.15 125.819 28.95C125.852 28.7833 125.885 28.5167 125.919 28.15C125.952 27.7667 125.969 27.2 125.969 26.45C125.969 24.8833 125.877 23.5583 125.694 22.475C125.51 21.3917 125.219 20.5 124.819 19.8L124.094 19.65V19.225C124.444 19.175 124.827 19.1 125.244 19C125.66 18.9 126.052 18.7917 126.419 18.675C126.802 18.5583 127.144 18.4333 127.444 18.3C127.744 18.1667 127.969 18.0333 128.119 17.9C128.369 18.25 128.585 19.0667 128.769 20.35C128.952 21.6167 129.085 23.325 129.169 25.475L129.244 27.65L130.519 28.325H130.669L131.719 27.25C131.769 26.9833 131.802 26.7167 131.819 26.45C131.835 26.1667 131.844 25.7333 131.844 25.15C131.844 23.75 131.802 22.6333 131.719 21.8C131.652 20.9667 131.535 20.3 131.369 19.8L130.644 19.65V19.225C130.994 19.175 131.377 19.1 131.794 19C132.21 18.9 132.602 18.7917 132.969 18.675C133.352 18.5583 133.694 18.4333 133.994 18.3C134.294 18.1667 134.519 18.0333 134.669 17.9C134.802 18.4167 134.894 19.05 134.944 19.8C134.994 20.5333 135.019 21.45 135.019 22.55C135.019 23.0167 135.01 23.5083 134.994 24.025C134.994 24.525 134.985 25 134.969 25.45C134.952 25.9 134.935 26.3 134.919 26.65C134.902 27 134.885 27.25 134.869 27.4L136.319 28.525H136.469C136.635 28.2083 136.802 27.775 136.969 27.225C137.135 26.675 137.277 26.075 137.394 25.425C137.527 24.7583 137.635 24.075 137.719 23.375C137.802 22.675 137.844 22.0167 137.844 21.4C137.844 20.7 137.777 20.175 137.644 19.825C137.527 19.475 137.31 19.2167 136.994 19.05L137.019 18.65C138.419 18.55 139.735 18.3 140.969 17.9C140.935 17.95 140.919 18.0417 140.919 18.175C140.919 18.8417 140.952 19.4083 141.019 19.875C141.085 20.325 141.235 20.6667 141.469 20.9L139.269 28.325L136.394 30.7H136.144ZM146.582 27.65C146.949 27.6833 147.324 27.7083 147.707 27.725C148.107 27.7417 148.599 27.8167 149.182 27.95V24.425C148.699 24.6083 148.232 24.7667 147.782 24.9C147.332 25.0167 146.949 25.0917 146.632 25.125L146.582 27.65ZM153.032 19.675C152.765 20.0583 152.59 20.5667 152.507 21.2C152.44 21.8333 152.407 22.7583 152.407 23.975C152.407 24.775 152.424 25.4167 152.457 25.9C152.507 26.3667 152.574 26.7417 152.657 27.025C152.74 27.2917 152.857 27.4833 153.007 27.6C153.157 27.7 153.34 27.775 153.557 27.825V28.1C153.324 28.1833 153.074 28.3333 152.807 28.55C152.557 28.75 152.307 28.975 152.057 29.225C151.807 29.475 151.582 29.7333 151.382 30C151.182 30.2667 151.032 30.5 150.932 30.7C150.582 30.4667 150.265 30.1583 149.982 29.775C149.699 29.3917 149.474 29.0083 149.307 28.625L147.582 30.7C146.949 30.3167 146.249 30.025 145.482 29.825C144.732 29.625 143.874 29.5167 142.907 29.5C143.074 29.0667 143.174 28.525 143.207 27.875C143.24 27.2083 143.257 26.5417 143.257 25.875C143.257 25.475 143.232 25.1 143.182 24.75C143.132 24.3833 143.049 24.0583 142.932 23.775C143.299 23.825 143.699 23.85 144.132 23.85C144.599 23.85 145.074 23.8333 145.557 23.8C146.057 23.75 146.532 23.6833 146.982 23.6C147.432 23.5167 147.84 23.425 148.207 23.325C148.59 23.2083 148.907 23.0833 149.157 22.95V20.475C148.59 20.725 147.999 20.9333 147.382 21.1C146.765 21.2667 146.257 21.35 145.857 21.35C145.574 21.35 145.307 21.325 145.057 21.275C144.824 21.2083 144.607 21.0917 144.407 20.925C144.207 20.7417 144.024 20.4917 143.857 20.175C143.707 19.8583 143.574 19.45 143.457 18.95C143.557 18.95 143.624 18.9583 143.657 18.975C143.707 18.975 143.832 18.975 144.032 18.975C145.232 18.975 146.265 18.8667 147.132 18.65C147.999 18.4333 148.674 18.1833 149.157 17.9C149.707 18.5 150.274 18.95 150.857 19.25C151.457 19.5333 152.182 19.675 153.032 19.675ZM159.021 21.975C159.404 21.3583 159.762 20.7083 160.096 20.025C160.429 19.3417 160.737 18.6167 161.021 17.85C161.337 18.05 161.787 18.2583 162.371 18.475C162.954 18.675 163.596 18.8583 164.296 19.025C164.212 19.725 164.062 20.3667 163.846 20.95C163.629 21.5167 163.354 21.9917 163.021 22.375L161.346 21.5H161.046L159.021 24.35V27.8C159.021 28.3833 159.121 28.8083 159.321 29.075C159.537 29.325 159.912 29.4917 160.446 29.575V30H155.096V29.625C155.546 29.4583 155.771 28.925 155.771 28.025V19.3L154.846 18.9V18.625C155.429 18.5417 156.062 18.4333 156.746 18.3C157.429 18.15 158.037 18.0083 158.571 17.875L159.021 18.625V21.975ZM170.396 30.7C169.913 30.35 169.313 30.0167 168.596 29.7C167.88 29.3833 167.138 29.1333 166.371 28.95C166.388 28.75 166.405 28.525 166.421 28.275C166.438 28.0083 166.446 27.7417 166.446 27.475C166.463 27.1917 166.471 26.925 166.471 26.675C166.488 26.4083 166.496 26.1833 166.496 26C166.496 24.4833 166.38 23.2083 166.146 22.175C165.93 21.1417 165.655 20.35 165.321 19.8L164.596 19.65V19.225C164.88 19.1917 165.221 19.1333 165.621 19.05C166.021 18.95 166.413 18.8417 166.796 18.725C167.196 18.5917 167.563 18.4583 167.896 18.325C168.23 18.175 168.48 18.0333 168.646 17.9C169.046 18.4833 169.321 19.4417 169.471 20.775C169.638 22.1083 169.721 23.675 169.721 25.475C169.721 25.825 169.721 26.1833 169.721 26.55C169.721 26.9 169.713 27.2667 169.696 27.65L170.946 28.325H171.096C171.33 27.925 171.53 27.425 171.696 26.825C171.88 26.2083 172.03 25.5667 172.146 24.9C172.28 24.2333 172.38 23.5833 172.446 22.95C172.513 22.3 172.546 21.7333 172.546 21.25C172.546 20.5833 172.471 20.0833 172.321 19.75C172.188 19.4167 171.98 19.1833 171.696 19.05L171.721 18.65C172.371 18.6 173.03 18.5167 173.696 18.4C174.363 18.2667 175.021 18.1 175.671 17.9C175.638 17.95 175.621 18.0083 175.621 18.075C175.621 18.1417 175.621 18.2167 175.621 18.3C175.621 18.8333 175.655 19.3417 175.721 19.825C175.788 20.2917 175.938 20.65 176.171 20.9L173.746 28.3L170.646 30.7H170.396ZM182.674 30.8C182.358 30.5667 181.966 30.35 181.499 30.15C181.033 29.95 180.549 29.7833 180.049 29.65C179.566 29.5 179.091 29.3833 178.624 29.3C178.174 29.2167 177.799 29.175 177.499 29.175C177.633 28.9583 177.749 28.6583 177.849 28.275C177.949 27.875 178.024 27.45 178.074 27C178.141 26.5333 178.183 26.0583 178.199 25.575C178.233 25.0917 178.249 24.65 178.249 24.25C178.249 23.2333 178.183 22.3917 178.049 21.725C177.933 21.0417 177.816 20.5083 177.699 20.125C178.416 19.9917 179.066 19.7333 179.649 19.35C180.249 18.9667 180.841 18.4833 181.424 17.9C182.108 18.0333 182.949 18.15 183.949 18.25C184.949 18.3333 185.941 18.3917 186.924 18.425C186.874 18.725 186.849 19.1 186.849 19.55C186.849 19.9 186.866 20.2833 186.899 20.7C186.933 21.1 186.974 21.5 187.024 21.9C187.074 22.3 187.141 22.6833 187.224 23.05C187.308 23.4167 187.399 23.7333 187.499 24C186.483 24.0833 185.449 24.2 184.399 24.35C183.349 24.4833 182.324 24.6333 181.324 24.8C181.308 25.2833 181.274 25.7583 181.224 26.225C181.174 26.6917 181.133 27.1 181.099 27.45C181.299 27.5333 181.549 27.6083 181.849 27.675C182.166 27.7417 182.499 27.8083 182.849 27.875C183.199 27.925 183.541 27.975 183.874 28.025C184.208 28.0583 184.491 28.0833 184.724 28.1C184.808 27.5833 185.008 27.1417 185.324 26.775C185.658 26.4083 186.216 26.1083 186.999 25.875C186.983 26.075 186.974 26.275 186.974 26.475C186.974 26.6583 186.974 26.8417 186.974 27.025C186.974 27.5917 186.991 28.0417 187.024 28.375C187.074 28.6917 187.158 29.0083 187.274 29.325C186.958 29.3583 186.583 29.425 186.149 29.525C185.716 29.6083 185.283 29.725 184.849 29.875C184.416 30.0083 183.999 30.15 183.599 30.3C183.216 30.4667 182.908 30.6333 182.674 30.8ZM181.074 20.15C181.158 20.85 181.216 21.4667 181.249 22C181.299 22.5333 181.333 23.025 181.349 23.475L184.274 22.75C184.191 22.4167 184.116 22.0667 184.049 21.7C183.999 21.3333 183.974 20.9583 183.974 20.575C183.591 20.575 183.124 20.5417 182.574 20.475C182.041 20.3917 181.541 20.2833 181.074 20.15ZM193.048 19.925C193.015 20.1917 192.99 20.45 192.973 20.7C192.973 20.95 192.973 21.2417 192.973 21.575C192.973 21.9083 192.981 22.2417 192.998 22.575C193.015 22.9083 193.04 23.2083 193.073 23.475C193.39 23.3583 193.715 23.2583 194.048 23.175C194.398 23.0917 194.781 23.0167 195.198 22.95C195.631 22.8833 196.115 22.825 196.648 22.775C197.181 22.725 197.806 22.675 198.523 22.625C198.473 23.2083 198.448 24.0583 198.448 25.175C198.448 26.125 198.465 26.975 198.498 27.725C198.531 28.4583 198.59 29.0167 198.673 29.4C198.156 29.4 197.631 29.4333 197.098 29.5C196.565 29.5667 196.056 29.6583 195.573 29.775C195.09 29.8917 194.64 30.0333 194.223 30.2C193.806 30.3667 193.456 30.55 193.173 30.75C192.973 30.5667 192.748 30.4083 192.498 30.275C192.265 30.1417 191.981 30.0333 191.648 29.95C191.315 29.85 190.923 29.775 190.473 29.725C190.023 29.6583 189.49 29.6083 188.873 29.575C188.906 29.0583 189.006 28.5333 189.173 28C189.356 27.45 189.581 27.0083 189.848 26.675C190.231 26.675 190.831 26.8167 191.648 27.1C192.465 27.3833 193.548 27.825 194.898 28.425C194.998 27.8917 195.073 27.4083 195.123 26.975C195.173 26.525 195.198 26.0583 195.198 25.575C195.198 25.275 195.198 25.0583 195.198 24.925C195.198 24.7917 195.19 24.6667 195.173 24.55C194.44 24.6167 193.59 24.7417 192.623 24.925C191.656 25.0917 190.748 25.2917 189.898 25.525C189.965 24.8083 190.006 24.2583 190.023 23.875C190.04 23.475 190.048 23.1167 190.048 22.8C190.048 22.05 190.006 21.3917 189.923 20.825C189.856 20.2583 189.74 19.7333 189.573 19.25C190.206 19.25 190.89 19.1417 191.623 18.925C192.356 18.7083 193.273 18.3667 194.373 17.9C195.423 18.4333 196.99 18.775 199.073 18.925C198.773 19.6417 198.431 20.1667 198.048 20.5C197.665 20.8167 197.19 20.975 196.623 20.975C196.373 20.975 196.09 20.95 195.773 20.9C195.456 20.85 195.131 20.775 194.798 20.675C194.481 20.575 194.165 20.4667 193.848 20.35C193.548 20.2167 193.281 20.075 193.048 19.925Z" fill="black"/>
<path d="M71.081 40.176C70.861 39.4647 70.6447 38.79 70.432 38.152C70.2193 37.5067 70.0213 36.92 69.838 36.392C69.6547 35.8567 69.497 35.402 69.365 35.028H69.277C69.277 35.094 69.2697 35.2297 69.255 35.435C69.2403 35.6403 69.222 35.8823 69.2 36.161C69.1853 36.4397 69.167 36.733 69.145 37.041C69.123 37.3417 69.101 37.6313 69.079 37.91C69.0643 38.1813 69.0497 38.4123 69.035 38.603C69.0277 38.7937 69.024 38.911 69.024 38.955C69.024 39.1897 69.1413 39.307 69.376 39.307C69.42 39.307 69.4897 39.307 69.585 39.307C69.6803 39.2997 69.7353 39.296 69.75 39.296L69.816 39.351L69.695 40.044C69.6217 40.044 69.5007 40.0403 69.332 40.033C69.1707 40.0257 69.002 40.0183 68.826 40.011C68.6573 40.0037 68.518 40 68.408 40C68.32 40 68.2137 40.0037 68.089 40.011C67.9643 40.0183 67.8433 40.0293 67.726 40.044C67.6087 40.0587 67.5097 40.0697 67.429 40.077C67.3557 40.0843 67.319 40.088 67.319 40.088L67.385 39.373C67.605 39.351 67.759 39.285 67.847 39.175C67.9423 39.0577 68.012 38.8597 68.056 38.581C68.0707 38.5003 68.089 38.3427 68.111 38.108C68.133 37.8733 68.1587 37.5947 68.188 37.272C68.2247 36.9493 68.2577 36.6193 68.287 36.282C68.3237 35.9373 68.3567 35.611 68.386 35.303C68.4227 34.995 68.4483 34.7383 68.463 34.533C68.485 34.3203 68.496 34.192 68.496 34.148C68.496 34.0087 68.4703 33.906 68.419 33.84C68.375 33.7667 68.2907 33.7117 68.166 33.675C68.0487 33.631 67.88 33.6017 67.66 33.587L67.605 33.521L67.704 32.883C67.8287 32.8903 67.979 32.8977 68.155 32.905C68.331 32.9123 68.5033 32.9197 68.672 32.927C68.8407 32.9343 68.9763 32.938 69.079 32.938C69.2037 32.938 69.3393 32.938 69.486 32.938C69.64 32.9307 69.7867 32.9233 69.926 32.916C70.0653 32.9087 70.1717 32.9013 70.245 32.894C70.399 33.4513 70.553 33.983 70.707 34.489C70.861 34.9877 71.0003 35.4423 71.125 35.853C71.257 36.2637 71.367 36.612 71.455 36.898C71.5503 37.184 71.6163 37.3857 71.653 37.503H71.741C71.7777 37.393 71.84 37.195 71.928 36.909C72.0233 36.623 72.137 36.2747 72.269 35.864C72.4083 35.4533 72.5587 34.9987 72.72 34.5C72.8813 34.0013 73.0463 33.477 73.215 32.927C73.3177 32.927 73.4423 32.9307 73.589 32.938C73.743 32.9453 73.9007 32.949 74.062 32.949C74.2233 32.949 74.3737 32.9453 74.513 32.938C74.6303 32.938 74.7697 32.9343 74.931 32.927C75.0997 32.9123 75.25 32.9013 75.382 32.894C75.514 32.8793 75.5983 32.872 75.635 32.872L75.679 32.916L75.613 33.576C75.305 33.598 75.0923 33.653 74.975 33.741C74.8577 33.8217 74.799 33.961 74.799 34.159C74.799 34.2543 74.8027 34.4157 74.81 34.643C74.8247 34.8703 74.8393 35.138 74.854 35.446C74.876 35.7467 74.898 36.0693 74.92 36.414C74.9493 36.7513 74.975 37.085 74.997 37.415C75.019 37.7377 75.041 38.031 75.063 38.295C75.1143 38.6983 75.173 38.9697 75.239 39.109C75.305 39.241 75.426 39.307 75.602 39.307C75.6607 39.307 75.723 39.3033 75.789 39.296C75.855 39.2887 75.8953 39.285 75.91 39.285L75.954 39.34L75.855 40.033C75.811 40.033 75.723 40.0293 75.591 40.022C75.4663 40.0147 75.3233 40.0073 75.162 40C75.008 40 74.8687 40 74.744 40C74.6193 40 74.4727 40.0037 74.304 40.011C74.1353 40.0183 73.9667 40.0293 73.798 40.044C73.6293 40.0587 73.4863 40.0697 73.369 40.077C73.2517 40.0843 73.1893 40.088 73.182 40.088L73.259 39.373C73.479 39.3437 73.6367 39.2887 73.732 39.208C73.8273 39.12 73.875 38.9917 73.875 38.823C73.875 38.7643 73.8677 38.6507 73.853 38.482C73.8457 38.3133 73.831 38.108 73.809 37.866C73.7943 37.624 73.7797 37.3637 73.765 37.085C73.7503 36.8063 73.732 36.535 73.71 36.271C73.6953 36.007 73.6807 35.765 73.666 35.545C73.6513 35.325 73.644 35.1527 73.644 35.028H73.545C73.4423 35.3067 73.3287 35.6293 73.204 35.996C73.0793 36.3627 72.94 36.766 72.786 37.206C72.632 37.646 72.4743 38.108 72.313 38.592C72.1517 39.076 71.9903 39.571 71.829 40.077L71.081 40.176ZM76.645 40.066L76.711 39.461C76.975 39.4097 77.1474 39.34 77.228 39.252C77.3087 39.1567 77.349 38.988 77.349 38.746L77.36 35.545C77.36 35.369 77.338 35.2517 77.294 35.193C77.25 35.1343 77.162 35.105 77.03 35.105C76.9714 35.105 76.9054 35.105 76.832 35.105C76.766 35.105 76.733 35.105 76.733 35.105L76.689 35.017L76.744 34.478C76.8467 34.478 76.9714 34.4817 77.118 34.489C77.2647 34.489 77.4187 34.489 77.58 34.489C77.7487 34.489 77.9064 34.489 78.053 34.489C78.1484 34.489 78.2694 34.489 78.416 34.489C78.57 34.4817 78.7204 34.4743 78.867 34.467C79.021 34.4597 79.1457 34.4523 79.241 34.445C79.3437 34.4377 79.395 34.434 79.395 34.434L79.34 35.061C79.1127 35.0903 78.9624 35.1343 78.889 35.193C78.823 35.2517 78.7827 35.3617 78.768 35.523C78.746 35.8457 78.7277 36.2013 78.713 36.59C78.6984 36.9787 78.6837 37.3673 78.669 37.756C78.6617 38.1373 78.658 38.4893 78.658 38.812C78.658 39.0467 78.68 39.2043 78.724 39.285C78.768 39.3583 78.8597 39.395 78.999 39.395C79.1017 39.395 79.186 39.3913 79.252 39.384C79.3254 39.3767 79.362 39.373 79.362 39.373L79.417 39.439L79.34 40.022C79.34 40.022 79.2887 40.0183 79.186 40.011C79.0834 40.011 78.955 40.011 78.801 40.011C78.647 40.011 78.493 40.0073 78.339 40C78.185 40 78.0567 40 77.954 40C77.7854 40 77.5984 40.0037 77.393 40.011C77.1877 40.0257 77.0117 40.0367 76.865 40.044C76.7184 40.0587 76.645 40.066 76.645 40.066ZM84.6345 37.767L84.6125 35.468C84.6051 35.336 84.5795 35.2443 84.5355 35.193C84.4915 35.1343 84.4181 35.105 84.3155 35.105C84.2568 35.105 84.1981 35.105 84.1395 35.105C84.0808 35.105 84.0368 35.105 84.0075 35.105L83.9745 35.028L84.0295 34.456C84.0295 34.456 84.0735 34.4597 84.1615 34.467C84.2495 34.467 84.3595 34.4707 84.4915 34.478C84.6235 34.478 84.7591 34.4817 84.8985 34.489C85.0378 34.489 85.1588 34.489 85.2615 34.489C85.4155 34.489 85.5768 34.4853 85.7455 34.478C85.9215 34.4707 86.0681 34.4633 86.1855 34.456C86.3101 34.4487 86.3725 34.445 86.3725 34.445L86.3285 35.072C86.1305 35.1013 85.9875 35.1563 85.8995 35.237C85.8188 35.3177 85.7748 35.4423 85.7675 35.611L85.6355 40.088L84.5465 40.198C84.2165 39.6993 83.8975 39.2373 83.5895 38.812C83.2888 38.3793 83.0211 38.0053 82.7865 37.69C82.5591 37.3673 82.3795 37.1143 82.2475 36.931C82.1155 36.7477 82.0495 36.656 82.0495 36.656H81.9505V38.999C81.9505 39.153 81.9725 39.2593 82.0165 39.318C82.0678 39.3767 82.1521 39.406 82.2695 39.406C82.3208 39.406 82.3941 39.4023 82.4895 39.395C82.5921 39.3877 82.6435 39.384 82.6435 39.384L82.6985 39.439L82.5995 40.033C82.5995 40.033 82.5555 40.0293 82.4675 40.022C82.3795 40.022 82.2695 40.0183 82.1375 40.011C82.0128 40.011 81.8808 40.0073 81.7415 40C81.6095 40 81.4921 40 81.3895 40C81.2208 40 81.0448 40.0037 80.8615 40.011C80.6855 40.0257 80.5351 40.0367 80.4105 40.044C80.2858 40.0587 80.2235 40.066 80.2235 40.066L80.3005 39.439C80.4838 39.417 80.6158 39.3657 80.6965 39.285C80.7771 39.2043 80.8211 39.076 80.8285 38.9L80.9495 35.622C80.9495 35.4313 80.9018 35.303 80.8065 35.237C80.7111 35.1637 80.5168 35.1123 80.2235 35.083L80.1465 34.995L80.2125 34.445C80.2125 34.445 80.2675 34.4487 80.3775 34.456C80.4948 34.4633 80.6378 34.4707 80.8065 34.478C80.9825 34.4853 81.1511 34.489 81.3125 34.489C81.4518 34.489 81.5911 34.4853 81.7305 34.478C81.8771 34.4707 81.9981 34.467 82.0935 34.467C82.1961 34.4597 82.2475 34.456 82.2475 34.456C82.5188 34.8813 82.7901 35.292 83.0615 35.688C83.3401 36.084 83.5895 36.4397 83.8095 36.755C84.0295 37.063 84.2055 37.3087 84.3375 37.492C84.4695 37.6753 84.5355 37.767 84.5355 37.767H84.6345ZM87.0005 40.088L87.0665 39.45C87.3158 39.4133 87.4845 39.3437 87.5725 39.241C87.6605 39.1383 87.7045 38.9587 87.7045 38.702L87.7155 35.567C87.7155 35.3763 87.6972 35.2517 87.6605 35.193C87.6238 35.1343 87.5468 35.105 87.4295 35.105C87.3782 35.105 87.3195 35.1087 87.2535 35.116C87.1948 35.116 87.1655 35.116 87.1655 35.116L87.0995 35.028L87.1765 34.467C87.1765 34.467 87.2315 34.4707 87.3415 34.478C87.4515 34.478 87.5945 34.478 87.7705 34.478C87.9538 34.478 88.1482 34.4817 88.3535 34.489C88.5588 34.489 88.7495 34.489 88.9255 34.489C89.3435 34.489 89.7285 34.4853 90.0805 34.478C90.4325 34.4707 90.7442 34.4597 91.0155 34.445C91.2868 34.4303 91.5142 34.412 91.6975 34.39L91.7745 34.489C91.7745 34.489 91.7598 34.566 91.7305 34.72C91.7012 34.874 91.6682 35.0757 91.6315 35.325C91.6022 35.567 91.5802 35.8237 91.5655 36.095L90.6525 36.15C90.6525 36.15 90.6562 36.1097 90.6635 36.029C90.6708 35.941 90.6745 35.8677 90.6745 35.809C90.6745 35.655 90.6488 35.545 90.5975 35.479C90.5462 35.4057 90.4435 35.358 90.2895 35.336C90.1355 35.3067 89.8972 35.292 89.5745 35.292C89.3765 35.292 89.2518 35.3067 89.2005 35.336C89.1565 35.3653 89.1308 35.4387 89.1235 35.556L89.0685 36.799C89.1565 36.799 89.2812 36.799 89.4425 36.799C89.6112 36.799 89.7578 36.799 89.8825 36.799C89.9925 36.799 90.1282 36.7953 90.2895 36.788C90.4508 36.7733 90.5975 36.7623 90.7295 36.755C90.8615 36.7403 90.9275 36.733 90.9275 36.733L91.0155 36.832L90.8835 37.624C90.8835 37.624 90.8175 37.624 90.6855 37.624C90.5535 37.6167 90.3958 37.613 90.2125 37.613C90.0365 37.6057 89.8715 37.602 89.7175 37.602C89.5855 37.602 89.4572 37.6093 89.3325 37.624C89.2152 37.6313 89.1162 37.6423 89.0355 37.657C89.0208 37.921 89.0135 38.1373 89.0135 38.306C89.0135 38.4747 89.0135 38.6177 89.0135 38.735C89.0135 38.8817 89.0245 38.9917 89.0465 39.065C89.0685 39.1383 89.1162 39.1897 89.1895 39.219C89.2702 39.241 89.3948 39.252 89.5635 39.252C89.9155 39.252 90.1795 39.23 90.3555 39.186C90.5315 39.142 90.6562 39.0503 90.7295 38.911C90.8102 38.7717 90.8688 38.5627 90.9055 38.284L91.7415 38.218L91.8295 38.317C91.8295 38.317 91.8148 38.394 91.7855 38.548C91.7562 38.702 91.7195 38.9037 91.6755 39.153C91.6388 39.4023 91.6058 39.67 91.5765 39.956L91.4775 40.055C91.4775 40.055 91.3858 40.0513 91.2025 40.044C91.0192 40.0367 90.7808 40.0293 90.4875 40.022C90.2015 40.022 89.8935 40.0183 89.5635 40.011C89.2408 40.0037 88.9292 40 88.6285 40C88.3572 40 88.0932 40.0073 87.8365 40.022C87.5872 40.0367 87.3855 40.0513 87.2315 40.066C87.0775 40.0807 87.0005 40.088 87.0005 40.088ZM92.9704 41.551L92.5744 41.232V41.045C92.8091 40.8837 92.9997 40.6893 93.1464 40.462C93.2931 40.2347 93.3664 40.011 93.3664 39.791C93.3664 39.6443 93.3334 39.4977 93.2674 39.351C93.2087 39.2043 93.1317 39.087 93.0364 38.999L93.0584 38.845C93.1904 38.7423 93.3334 38.6543 93.4874 38.581C93.6414 38.5003 93.7844 38.46 93.9164 38.46C94.1291 38.46 94.3014 38.548 94.4334 38.724C94.5727 38.8927 94.6424 39.131 94.6424 39.439C94.6424 39.703 94.5617 39.967 94.4004 40.231C94.2464 40.495 94.0411 40.737 93.7844 40.957C93.5351 41.1843 93.2637 41.3823 92.9704 41.551ZM97.9408 40.066L98.0068 39.428C98.2781 39.406 98.4761 39.373 98.6008 39.329C98.7254 39.2777 98.8098 39.197 98.8538 39.087C98.8978 38.9697 98.9198 38.801 98.9198 38.581V35.259C98.7071 35.259 98.5384 35.2737 98.4138 35.303C98.2891 35.325 98.1901 35.3763 98.1168 35.457C98.0434 35.5303 97.9884 35.6403 97.9518 35.787C97.9151 35.9337 97.8821 36.1353 97.8528 36.392L97.0168 36.447C97.0168 36.447 97.0204 36.3883 97.0278 36.271C97.0424 36.1463 97.0534 35.9887 97.0608 35.798C97.0754 35.6 97.0864 35.391 97.0938 35.171C97.1084 34.9437 97.1158 34.72 97.1158 34.5L97.2258 34.39L98.1608 34.489H100.999L101.956 34.39L102.066 34.5C102.066 34.72 102.069 34.9437 102.077 35.171C102.084 35.391 102.091 35.5963 102.099 35.787C102.113 35.9703 102.124 36.117 102.132 36.227C102.139 36.337 102.143 36.392 102.143 36.392L101.307 36.447C101.277 36.1683 101.244 35.952 101.208 35.798C101.171 35.644 101.12 35.5303 101.054 35.457C100.988 35.3763 100.896 35.325 100.779 35.303C100.661 35.2737 100.504 35.259 100.306 35.259C100.291 35.4497 100.276 35.6843 100.262 35.963C100.254 36.2417 100.247 36.5423 100.24 36.865C100.232 37.1803 100.225 37.503 100.218 37.833C100.218 38.163 100.218 38.482 100.218 38.79C100.218 39.0027 100.254 39.153 100.328 39.241C100.401 39.329 100.529 39.373 100.713 39.373C100.837 39.373 100.947 39.3693 101.043 39.362C101.138 39.3547 101.186 39.351 101.186 39.351L101.219 39.395L101.142 40.044C101.142 40.044 101.079 40.0403 100.955 40.033C100.837 40.0257 100.687 40.0183 100.504 40.011C100.328 40.011 100.148 40.0073 99.9648 40C99.7888 40 99.6384 40 99.5138 40C99.3818 40 99.2278 40 99.0518 40C98.8758 40.0073 98.6998 40.0147 98.5238 40.022C98.3551 40.0367 98.2158 40.0477 98.1058 40.055C97.9958 40.0623 97.9408 40.066 97.9408 40.066ZM107.062 40.132C106.849 40.132 106.659 40.0697 106.49 39.945C106.329 39.813 106.186 39.6113 106.061 39.34L105.324 37.899H104.708L104.697 38.746C104.697 38.9367 104.708 39.076 104.73 39.164C104.759 39.252 104.822 39.3107 104.917 39.34C105.012 39.3693 105.155 39.3877 105.346 39.395L105.39 39.45L105.291 40.033C105.291 40.033 105.243 40.0293 105.148 40.022C105.06 40.022 104.946 40.0183 104.807 40.011C104.668 40.011 104.528 40.011 104.389 40.011C104.25 40.011 104.132 40.011 104.037 40.011C103.839 40.0037 103.634 40.0037 103.421 40.011C103.216 40.0257 103.04 40.0367 102.893 40.044C102.754 40.0587 102.684 40.066 102.684 40.066L102.761 39.428C103.01 39.3913 103.175 39.3253 103.256 39.23C103.344 39.1347 103.388 38.966 103.388 38.724L103.399 35.501C103.399 35.347 103.377 35.2443 103.333 35.193C103.296 35.1343 103.227 35.105 103.124 35.105C103.058 35.105 102.988 35.1087 102.915 35.116C102.842 35.116 102.805 35.116 102.805 35.116L102.739 35.039L102.827 34.478C102.827 34.478 102.871 34.478 102.959 34.478C103.047 34.478 103.153 34.4817 103.278 34.489C103.41 34.489 103.538 34.489 103.663 34.489C103.795 34.489 103.905 34.489 103.993 34.489C104.088 34.489 104.217 34.489 104.378 34.489C104.539 34.4817 104.701 34.478 104.862 34.478C105.023 34.4707 105.159 34.4633 105.269 34.456C105.379 34.4487 105.434 34.445 105.434 34.445C106.16 34.445 106.714 34.5733 107.095 34.83C107.476 35.0867 107.667 35.4607 107.667 35.952C107.667 36.2893 107.561 36.5973 107.348 36.876C107.143 37.1547 106.849 37.3893 106.468 37.58L107.205 38.713C107.374 38.9623 107.535 39.1493 107.689 39.274C107.85 39.3913 108.019 39.45 108.195 39.45L108.272 39.549L108.195 40.044L107.062 40.132ZM105.522 37.129C105.588 37.107 105.661 37.074 105.742 37.03C105.823 36.986 105.903 36.9273 105.984 36.854C106.065 36.7807 106.131 36.6853 106.182 36.568C106.233 36.4433 106.259 36.293 106.259 36.117C106.259 35.8237 106.153 35.6073 105.94 35.468C105.727 35.3213 105.401 35.248 104.961 35.248C104.902 35.248 104.862 35.2627 104.84 35.292C104.825 35.314 104.814 35.3653 104.807 35.446C104.785 35.7467 104.767 36.0253 104.752 36.282C104.745 36.5387 104.741 36.7917 104.741 37.041L105.522 37.129ZM111.536 40.066L111.481 40L111.525 39.428C111.723 39.406 111.87 39.3877 111.965 39.373C112.06 39.351 112.123 39.3217 112.152 39.285C112.189 39.241 112.207 39.186 112.207 39.12C112.207 39.0833 112.203 39.0467 112.196 39.01C112.189 38.966 112.178 38.9183 112.163 38.867L112.009 38.295C111.892 38.2877 111.752 38.284 111.591 38.284C111.437 38.284 111.309 38.284 111.206 38.284C111.074 38.284 110.931 38.2913 110.777 38.306C110.623 38.3133 110.487 38.3243 110.37 38.339L110.172 38.911C110.157 38.9697 110.146 39.0173 110.139 39.054C110.132 39.0907 110.128 39.1237 110.128 39.153C110.128 39.2483 110.154 39.3143 110.205 39.351C110.264 39.3803 110.37 39.395 110.524 39.395H110.865L110.92 39.472L110.854 40.044C110.854 40.044 110.781 40.0403 110.634 40.033C110.495 40.0257 110.319 40.0183 110.106 40.011C109.901 40.0037 109.703 40 109.512 40C109.351 40 109.182 40 109.006 40C108.83 40.0073 108.683 40.011 108.566 40.011C108.456 40.0183 108.401 40.022 108.401 40.022L108.467 39.406C108.599 39.384 108.705 39.3327 108.786 39.252C108.874 39.164 108.955 39.0357 109.028 38.867L110.612 34.533L112.229 34.39L112.339 34.456C112.339 34.456 112.361 34.533 112.405 34.687C112.449 34.8337 112.504 35.0353 112.57 35.292C112.643 35.5487 112.724 35.8347 112.812 36.15C112.9 36.458 112.988 36.777 113.076 37.107C113.171 37.437 113.263 37.7523 113.351 38.053C113.446 38.3463 113.531 38.603 113.604 38.823C113.67 39.021 113.751 39.164 113.846 39.252C113.941 39.34 114.084 39.3913 114.275 39.406L114.319 39.472L114.253 40.022C114.253 40.022 114.187 40.0183 114.055 40.011C113.923 40.011 113.765 40.0073 113.582 40C113.406 40 113.248 40 113.109 40C112.852 40 112.603 40.0037 112.361 40.011C112.119 40.0257 111.921 40.0367 111.767 40.044C111.613 40.0587 111.536 40.066 111.536 40.066ZM110.612 37.514H111.206C111.294 37.514 111.397 37.5103 111.514 37.503C111.639 37.4957 111.749 37.4883 111.844 37.481L111.349 35.699H111.217L110.612 37.514ZM117.343 40.099C117.343 40.099 117.266 40.088 117.112 40.066C116.958 40.0513 116.771 40.0367 116.551 40.022C116.339 40.0073 116.144 40 115.968 40C115.807 40 115.631 40.0073 115.44 40.022C115.257 40.0367 115.099 40.0513 114.967 40.066C114.843 40.0807 114.78 40.088 114.78 40.088L114.835 39.439C115.092 39.395 115.261 39.3253 115.341 39.23C115.429 39.1273 115.473 38.9587 115.473 38.724L115.484 35.567C115.484 35.3837 115.462 35.2627 115.418 35.204C115.382 35.138 115.312 35.105 115.209 35.105C115.151 35.105 115.085 35.1087 115.011 35.116C114.945 35.1233 114.912 35.127 114.912 35.127L114.857 35.039L114.934 34.467C114.934 34.467 114.978 34.4707 115.066 34.478C115.154 34.478 115.264 34.478 115.396 34.478C115.528 34.478 115.66 34.4817 115.792 34.489C115.924 34.489 116.034 34.489 116.122 34.489C116.225 34.489 116.357 34.489 116.518 34.489C116.68 34.4817 116.841 34.478 117.002 34.478C117.164 34.4707 117.299 34.4633 117.409 34.456C117.519 34.4487 117.574 34.445 117.574 34.445C118.19 34.445 118.715 34.5477 119.147 34.753C119.587 34.951 119.921 35.2407 120.148 35.622C120.383 36.0033 120.5 36.469 120.5 37.019C120.5 37.6277 120.365 38.163 120.093 38.625C119.829 39.087 119.463 39.45 118.993 39.714C118.524 39.9707 117.974 40.099 117.343 40.099ZM117.123 35.281C117.035 35.281 116.973 35.2957 116.936 35.325C116.9 35.3543 116.878 35.4093 116.87 35.49C116.841 36.1353 116.815 36.7257 116.793 37.261C116.771 37.7963 116.76 38.2803 116.76 38.713C116.76 38.9403 116.804 39.0907 116.892 39.164C116.988 39.2373 117.167 39.274 117.431 39.274C117.937 39.274 118.315 39.1127 118.564 38.79C118.821 38.4673 118.949 37.9687 118.949 37.294C118.949 36.8173 118.883 36.4323 118.751 36.139C118.619 35.8383 118.418 35.622 118.146 35.49C117.882 35.3507 117.541 35.281 117.123 35.281ZM121.225 40.088L121.291 39.45C121.54 39.4133 121.709 39.3437 121.797 39.241C121.885 39.1383 121.929 38.9587 121.929 38.702L121.94 35.567C121.94 35.3763 121.922 35.2517 121.885 35.193C121.848 35.1343 121.771 35.105 121.654 35.105C121.603 35.105 121.544 35.1087 121.478 35.116C121.419 35.116 121.39 35.116 121.39 35.116L121.324 35.028L121.401 34.467C121.401 34.467 121.456 34.4707 121.566 34.478C121.676 34.478 121.819 34.478 121.995 34.478C122.178 34.478 122.373 34.4817 122.578 34.489C122.783 34.489 122.974 34.489 123.15 34.489C123.568 34.489 123.953 34.4853 124.305 34.478C124.657 34.4707 124.969 34.4597 125.24 34.445C125.511 34.4303 125.739 34.412 125.922 34.39L125.999 34.489C125.999 34.489 125.984 34.566 125.955 34.72C125.926 34.874 125.893 35.0757 125.856 35.325C125.827 35.567 125.805 35.8237 125.79 36.095L124.877 36.15C124.877 36.15 124.881 36.1097 124.888 36.029C124.895 35.941 124.899 35.8677 124.899 35.809C124.899 35.655 124.873 35.545 124.822 35.479C124.771 35.4057 124.668 35.358 124.514 35.336C124.36 35.3067 124.122 35.292 123.799 35.292C123.601 35.292 123.476 35.3067 123.425 35.336C123.381 35.3653 123.355 35.4387 123.348 35.556L123.293 36.799C123.381 36.799 123.506 36.799 123.667 36.799C123.836 36.799 123.982 36.799 124.107 36.799C124.217 36.799 124.353 36.7953 124.514 36.788C124.675 36.7733 124.822 36.7623 124.954 36.755C125.086 36.7403 125.152 36.733 125.152 36.733L125.24 36.832L125.108 37.624C125.108 37.624 125.042 37.624 124.91 37.624C124.778 37.6167 124.62 37.613 124.437 37.613C124.261 37.6057 124.096 37.602 123.942 37.602C123.81 37.602 123.682 37.6093 123.557 37.624C123.44 37.6313 123.341 37.6423 123.26 37.657C123.245 37.921 123.238 38.1373 123.238 38.306C123.238 38.4747 123.238 38.6177 123.238 38.735C123.238 38.8817 123.249 38.9917 123.271 39.065C123.293 39.1383 123.341 39.1897 123.414 39.219C123.495 39.241 123.619 39.252 123.788 39.252C124.14 39.252 124.404 39.23 124.58 39.186C124.756 39.142 124.881 39.0503 124.954 38.911C125.035 38.7717 125.093 38.5627 125.13 38.284L125.966 38.218L126.054 38.317C126.054 38.317 126.039 38.394 126.01 38.548C125.981 38.702 125.944 38.9037 125.9 39.153C125.863 39.4023 125.83 39.67 125.801 39.956L125.702 40.055C125.702 40.055 125.61 40.0513 125.427 40.044C125.244 40.0367 125.005 40.0293 124.712 40.022C124.426 40.022 124.118 40.0183 123.788 40.011C123.465 40.0037 123.154 40 122.853 40C122.582 40 122.318 40.0073 122.061 40.022C121.812 40.0367 121.61 40.0513 121.456 40.066C121.302 40.0807 121.225 40.088 121.225 40.088ZM127.195 41.551L126.799 41.232V41.045C127.034 40.8837 127.224 40.6893 127.371 40.462C127.518 40.2347 127.591 40.011 127.591 39.791C127.591 39.6443 127.558 39.4977 127.492 39.351C127.433 39.2043 127.356 39.087 127.261 38.999L127.283 38.845C127.415 38.7423 127.558 38.6543 127.712 38.581C127.866 38.5003 128.009 38.46 128.141 38.46C128.354 38.46 128.526 38.548 128.658 38.724C128.797 38.8927 128.867 39.131 128.867 39.439C128.867 39.703 128.786 39.967 128.625 40.231C128.471 40.495 128.266 40.737 128.009 40.957C127.76 41.1843 127.488 41.3823 127.195 41.551ZM134.09 40.099C134.09 40.099 134.013 40.088 133.859 40.066C133.705 40.0513 133.518 40.0367 133.298 40.022C133.086 40.0073 132.891 40 132.715 40C132.554 40 132.378 40.0073 132.187 40.022C132.004 40.0367 131.846 40.0513 131.714 40.066C131.59 40.0807 131.527 40.088 131.527 40.088L131.582 39.439C131.839 39.395 132.008 39.3253 132.088 39.23C132.176 39.1273 132.22 38.9587 132.22 38.724L132.231 35.567C132.231 35.3837 132.209 35.2627 132.165 35.204C132.129 35.138 132.059 35.105 131.956 35.105C131.898 35.105 131.832 35.1087 131.758 35.116C131.692 35.1233 131.659 35.127 131.659 35.127L131.604 35.039L131.681 34.467C131.681 34.467 131.725 34.4707 131.813 34.478C131.901 34.478 132.011 34.478 132.143 34.478C132.275 34.478 132.407 34.4817 132.539 34.489C132.671 34.489 132.781 34.489 132.869 34.489C132.972 34.489 133.104 34.489 133.265 34.489C133.427 34.4817 133.588 34.478 133.749 34.478C133.911 34.4707 134.046 34.4633 134.156 34.456C134.266 34.4487 134.321 34.445 134.321 34.445C134.937 34.445 135.462 34.5477 135.894 34.753C136.334 34.951 136.668 35.2407 136.895 35.622C137.13 36.0033 137.247 36.469 137.247 37.019C137.247 37.6277 137.112 38.163 136.84 38.625C136.576 39.087 136.21 39.45 135.74 39.714C135.271 39.9707 134.721 40.099 134.09 40.099ZM133.87 35.281C133.782 35.281 133.72 35.2957 133.683 35.325C133.647 35.3543 133.625 35.4093 133.617 35.49C133.588 36.1353 133.562 36.7257 133.54 37.261C133.518 37.7963 133.507 38.2803 133.507 38.713C133.507 38.9403 133.551 39.0907 133.639 39.164C133.735 39.2373 133.914 39.274 134.178 39.274C134.684 39.274 135.062 39.1127 135.311 38.79C135.568 38.4673 135.696 37.9687 135.696 37.294C135.696 36.8173 135.63 36.4323 135.498 36.139C135.366 35.8383 135.165 35.622 134.893 35.49C134.629 35.3507 134.288 35.281 133.87 35.281ZM142.35 40.132C142.138 40.132 141.947 40.0697 141.778 39.945C141.617 39.813 141.474 39.6113 141.349 39.34L140.612 37.899H139.996L139.985 38.746C139.985 38.9367 139.996 39.076 140.018 39.164C140.048 39.252 140.11 39.3107 140.205 39.34C140.301 39.3693 140.444 39.3877 140.634 39.395L140.678 39.45L140.579 40.033C140.579 40.033 140.532 40.0293 140.436 40.022C140.348 40.022 140.235 40.0183 140.095 40.011C139.956 40.011 139.817 40.011 139.677 40.011C139.538 40.011 139.421 40.011 139.325 40.011C139.127 40.0037 138.922 40.0037 138.709 40.011C138.504 40.0257 138.328 40.0367 138.181 40.044C138.042 40.0587 137.972 40.066 137.972 40.066L138.049 39.428C138.299 39.3913 138.464 39.3253 138.544 39.23C138.632 39.1347 138.676 38.966 138.676 38.724L138.687 35.501C138.687 35.347 138.665 35.2443 138.621 35.193C138.585 35.1343 138.515 35.105 138.412 35.105C138.346 35.105 138.277 35.1087 138.203 35.116C138.13 35.116 138.093 35.116 138.093 35.116L138.027 35.039L138.115 34.478C138.115 34.478 138.159 34.478 138.247 34.478C138.335 34.478 138.442 34.4817 138.566 34.489C138.698 34.489 138.827 34.489 138.951 34.489C139.083 34.489 139.193 34.489 139.281 34.489C139.377 34.489 139.505 34.489 139.666 34.489C139.828 34.4817 139.989 34.478 140.15 34.478C140.312 34.4707 140.447 34.4633 140.557 34.456C140.667 34.4487 140.722 34.445 140.722 34.445C141.448 34.445 142.002 34.5733 142.383 34.83C142.765 35.0867 142.955 35.4607 142.955 35.952C142.955 36.2893 142.849 36.5973 142.636 36.876C142.431 37.1547 142.138 37.3893 141.756 37.58L142.493 38.713C142.662 38.9623 142.823 39.1493 142.977 39.274C143.139 39.3913 143.307 39.45 143.483 39.45L143.56 39.549L143.483 40.044L142.35 40.132ZM140.81 37.129C140.876 37.107 140.95 37.074 141.03 37.03C141.111 36.986 141.192 36.9273 141.272 36.854C141.353 36.7807 141.419 36.6853 141.47 36.568C141.522 36.4433 141.547 36.293 141.547 36.117C141.547 35.8237 141.441 35.6073 141.228 35.468C141.016 35.3213 140.689 35.248 140.249 35.248C140.191 35.248 140.15 35.2627 140.128 35.292C140.114 35.314 140.103 35.3653 140.095 35.446C140.073 35.7467 140.055 36.0253 140.04 36.282C140.033 36.5387 140.029 36.7917 140.029 37.041L140.81 37.129ZM144.063 40.066L144.129 39.461C144.393 39.4097 144.565 39.34 144.646 39.252C144.727 39.1567 144.767 38.988 144.767 38.746L144.778 35.545C144.778 35.369 144.756 35.2517 144.712 35.193C144.668 35.1343 144.58 35.105 144.448 35.105C144.389 35.105 144.323 35.105 144.25 35.105C144.184 35.105 144.151 35.105 144.151 35.105L144.107 35.017L144.162 34.478C144.265 34.478 144.389 34.4817 144.536 34.489C144.683 34.489 144.837 34.489 144.998 34.489C145.167 34.489 145.324 34.489 145.471 34.489C145.566 34.489 145.687 34.489 145.834 34.489C145.988 34.4817 146.138 34.4743 146.285 34.467C146.439 34.4597 146.564 34.4523 146.659 34.445C146.762 34.4377 146.813 34.434 146.813 34.434L146.758 35.061C146.531 35.0903 146.38 35.1343 146.307 35.193C146.241 35.2517 146.201 35.3617 146.186 35.523C146.164 35.8457 146.146 36.2013 146.131 36.59C146.116 36.9787 146.102 37.3673 146.087 37.756C146.08 38.1373 146.076 38.4893 146.076 38.812C146.076 39.0467 146.098 39.2043 146.142 39.285C146.186 39.3583 146.278 39.395 146.417 39.395C146.52 39.395 146.604 39.3913 146.67 39.384C146.743 39.3767 146.78 39.373 146.78 39.373L146.835 39.439L146.758 40.022C146.758 40.022 146.707 40.0183 146.604 40.011C146.501 40.011 146.373 40.011 146.219 40.011C146.065 40.011 145.911 40.0073 145.757 40C145.603 40 145.475 40 145.372 40C145.203 40 145.016 40.0037 144.811 40.011C144.606 40.0257 144.43 40.0367 144.283 40.044C144.136 40.0587 144.063 40.066 144.063 40.066ZM152.052 37.767L152.03 35.468C152.023 35.336 151.997 35.2443 151.953 35.193C151.909 35.1343 151.836 35.105 151.733 35.105C151.675 35.105 151.616 35.105 151.557 35.105C151.499 35.105 151.455 35.105 151.425 35.105L151.392 35.028L151.447 34.456C151.447 34.456 151.491 34.4597 151.579 34.467C151.667 34.467 151.777 34.4707 151.909 34.478C152.041 34.478 152.177 34.4817 152.316 34.489C152.456 34.489 152.577 34.489 152.679 34.489C152.833 34.489 152.995 34.4853 153.163 34.478C153.339 34.4707 153.486 34.4633 153.603 34.456C153.728 34.4487 153.79 34.445 153.79 34.445L153.746 35.072C153.548 35.1013 153.405 35.1563 153.317 35.237C153.237 35.3177 153.193 35.4423 153.185 35.611L153.053 40.088L151.964 40.198C151.634 39.6993 151.315 39.2373 151.007 38.812C150.707 38.3793 150.439 38.0053 150.204 37.69C149.977 37.3673 149.797 37.1143 149.665 36.931C149.533 36.7477 149.467 36.656 149.467 36.656H149.368V38.999C149.368 39.153 149.39 39.2593 149.434 39.318C149.486 39.3767 149.57 39.406 149.687 39.406C149.739 39.406 149.812 39.4023 149.907 39.395C150.01 39.3877 150.061 39.384 150.061 39.384L150.116 39.439L150.017 40.033C150.017 40.033 149.973 40.0293 149.885 40.022C149.797 40.022 149.687 40.0183 149.555 40.011C149.431 40.011 149.299 40.0073 149.159 40C149.027 40 148.91 40 148.807 40C148.639 40 148.463 40.0037 148.279 40.011C148.103 40.0257 147.953 40.0367 147.828 40.044C147.704 40.0587 147.641 40.066 147.641 40.066L147.718 39.439C147.902 39.417 148.034 39.3657 148.114 39.285C148.195 39.2043 148.239 39.076 148.246 38.9L148.367 35.622C148.367 35.4313 148.32 35.303 148.224 35.237C148.129 35.1637 147.935 35.1123 147.641 35.083L147.564 34.995L147.63 34.445C147.63 34.445 147.685 34.4487 147.795 34.456C147.913 34.4633 148.056 34.4707 148.224 34.478C148.4 34.4853 148.569 34.489 148.73 34.489C148.87 34.489 149.009 34.4853 149.148 34.478C149.295 34.4707 149.416 34.467 149.511 34.467C149.614 34.4597 149.665 34.456 149.665 34.456C149.937 34.8813 150.208 35.292 150.479 35.688C150.758 36.084 151.007 36.4397 151.227 36.755C151.447 37.063 151.623 37.3087 151.755 37.492C151.887 37.6753 151.953 37.767 151.953 37.767H152.052ZM156.618 37.085L157.894 35.776C158.041 35.6367 158.114 35.4973 158.114 35.358C158.114 35.27 158.081 35.2077 158.015 35.171C157.949 35.127 157.832 35.1013 157.663 35.094L157.63 35.028L157.707 34.456C157.707 34.456 157.777 34.4597 157.916 34.467C158.063 34.467 158.228 34.4707 158.411 34.478C158.595 34.4853 158.749 34.489 158.873 34.489C158.954 34.489 159.057 34.489 159.181 34.489C159.306 34.4817 159.427 34.478 159.544 34.478C159.669 34.4707 159.772 34.467 159.852 34.467C159.933 34.4597 159.973 34.456 159.973 34.456L160.05 34.555L159.973 35.083C159.783 35.171 159.596 35.2957 159.412 35.457C159.229 35.611 159.009 35.8383 158.752 36.139L157.927 37.008L159.049 38.68C159.225 38.9367 159.387 39.1237 159.533 39.241C159.687 39.351 159.863 39.417 160.061 39.439L160.127 39.527L160.05 40.033C160.05 40.033 159.999 40.0367 159.896 40.044C159.801 40.0587 159.684 40.0697 159.544 40.077C159.412 40.0917 159.288 40.1027 159.17 40.11C159.053 40.1247 158.972 40.132 158.928 40.132C158.723 40.132 158.543 40.077 158.389 39.967C158.235 39.857 158.078 39.6737 157.916 39.417L156.596 37.294L156.618 37.085ZM155.133 35.545C155.133 35.3617 155.111 35.2443 155.067 35.193C155.023 35.1343 154.935 35.105 154.803 35.105C154.752 35.105 154.693 35.105 154.627 35.105C154.569 35.105 154.539 35.105 154.539 35.105L154.484 35.017L154.561 34.478C154.561 34.478 154.613 34.478 154.715 34.478C154.818 34.478 154.943 34.4817 155.089 34.489C155.243 34.489 155.386 34.489 155.518 34.489C155.658 34.489 155.76 34.489 155.826 34.489C155.922 34.489 156.043 34.489 156.189 34.489C156.336 34.4817 156.479 34.4743 156.618 34.467C156.765 34.4597 156.886 34.4523 156.981 34.445C157.084 34.4377 157.135 34.434 157.135 34.434L157.091 35.061C156.864 35.105 156.714 35.16 156.64 35.226C156.567 35.2847 156.527 35.3947 156.519 35.556L156.431 38.812C156.431 39.0467 156.453 39.2043 156.497 39.285C156.541 39.3583 156.633 39.395 156.772 39.395C156.868 39.395 156.948 39.3913 157.014 39.384C157.08 39.3767 157.113 39.373 157.113 39.373L157.157 39.439L157.08 40.022C157.08 40.022 157.029 40.0183 156.926 40.011C156.824 40.011 156.695 40.011 156.541 40.011C156.395 40.011 156.248 40.0073 156.101 40C155.955 40 155.83 40 155.727 40C155.559 40 155.372 40 155.166 40C154.961 40.0073 154.785 40.011 154.638 40.011C154.492 40.0183 154.418 40.022 154.418 40.022L154.506 39.428C154.763 39.3913 154.928 39.3327 155.001 39.252C155.082 39.164 155.122 38.9953 155.122 38.746L155.133 35.545ZM161.054 41.551L160.658 41.232V41.045C160.893 40.8837 161.084 40.6893 161.23 40.462C161.377 40.2347 161.45 40.011 161.45 39.791C161.45 39.6443 161.417 39.4977 161.351 39.351C161.293 39.2043 161.216 39.087 161.12 38.999L161.142 38.845C161.274 38.7423 161.417 38.6543 161.571 38.581C161.725 38.5003 161.868 38.46 162 38.46C162.213 38.46 162.385 38.548 162.517 38.724C162.657 38.8927 162.726 39.131 162.726 39.439C162.726 39.703 162.646 39.967 162.484 40.231C162.33 40.495 162.125 40.737 161.868 40.957C161.619 41.1843 161.348 41.3823 161.054 41.551ZM169.743 40.132C169.53 40.132 169.339 40.0697 169.171 39.945C169.009 39.813 168.866 39.6113 168.742 39.34L168.005 37.899H167.389L167.378 38.746C167.378 38.9367 167.389 39.076 167.411 39.164C167.44 39.252 167.502 39.3107 167.598 39.34C167.693 39.3693 167.836 39.3877 168.027 39.395L168.071 39.45L167.972 40.033C167.972 40.033 167.924 40.0293 167.829 40.022C167.741 40.022 167.627 40.0183 167.488 40.011C167.348 40.011 167.209 40.011 167.07 40.011C166.93 40.011 166.813 40.011 166.718 40.011C166.52 40.0037 166.314 40.0037 166.102 40.011C165.896 40.0257 165.72 40.0367 165.574 40.044C165.434 40.0587 165.365 40.066 165.365 40.066L165.442 39.428C165.691 39.3913 165.856 39.3253 165.937 39.23C166.025 39.1347 166.069 38.966 166.069 38.724L166.08 35.501C166.08 35.347 166.058 35.2443 166.014 35.193C165.977 35.1343 165.907 35.105 165.805 35.105C165.739 35.105 165.669 35.1087 165.596 35.116C165.522 35.116 165.486 35.116 165.486 35.116L165.42 35.039L165.508 34.478C165.508 34.478 165.552 34.478 165.64 34.478C165.728 34.478 165.834 34.4817 165.959 34.489C166.091 34.489 166.219 34.489 166.344 34.489C166.476 34.489 166.586 34.489 166.674 34.489C166.769 34.489 166.897 34.489 167.059 34.489C167.22 34.4817 167.381 34.478 167.543 34.478C167.704 34.4707 167.84 34.4633 167.95 34.456C168.06 34.4487 168.115 34.445 168.115 34.445C168.841 34.445 169.394 34.5733 169.776 34.83C170.157 35.0867 170.348 35.4607 170.348 35.952C170.348 36.2893 170.241 36.5973 170.029 36.876C169.823 37.1547 169.53 37.3893 169.149 37.58L169.886 38.713C170.054 38.9623 170.216 39.1493 170.37 39.274C170.531 39.3913 170.7 39.45 170.876 39.45L170.953 39.549L170.876 40.044L169.743 40.132ZM168.203 37.129C168.269 37.107 168.342 37.074 168.423 37.03C168.503 36.986 168.584 36.9273 168.665 36.854C168.745 36.7807 168.811 36.6853 168.863 36.568C168.914 36.4433 168.94 36.293 168.94 36.117C168.94 35.8237 168.833 35.6073 168.621 35.468C168.408 35.3213 168.082 35.248 167.642 35.248C167.583 35.248 167.543 35.2627 167.521 35.292C167.506 35.314 167.495 35.3653 167.488 35.446C167.466 35.7467 167.447 36.0253 167.433 36.282C167.425 36.5387 167.422 36.7917 167.422 37.041L168.203 37.129ZM171.456 40.088L171.522 39.45C171.771 39.4133 171.94 39.3437 172.028 39.241C172.116 39.1383 172.16 38.9587 172.16 38.702L172.171 35.567C172.171 35.3763 172.152 35.2517 172.116 35.193C172.079 35.1343 172.002 35.105 171.885 35.105C171.833 35.105 171.775 35.1087 171.709 35.116C171.65 35.116 171.621 35.116 171.621 35.116L171.555 35.028L171.632 34.467C171.632 34.467 171.687 34.4707 171.797 34.478C171.907 34.478 172.05 34.478 172.226 34.478C172.409 34.478 172.603 34.4817 172.809 34.489C173.014 34.489 173.205 34.489 173.381 34.489C173.799 34.489 174.184 34.4853 174.536 34.478C174.888 34.4707 175.199 34.4597 175.471 34.445C175.742 34.4303 175.969 34.412 176.153 34.39L176.23 34.489C176.23 34.489 176.215 34.566 176.186 34.72C176.156 34.874 176.123 35.0757 176.087 35.325C176.057 35.567 176.035 35.8237 176.021 36.095L175.108 36.15C175.108 36.15 175.111 36.1097 175.119 36.029C175.126 35.941 175.13 35.8677 175.13 35.809C175.13 35.655 175.104 35.545 175.053 35.479C175.001 35.4057 174.899 35.358 174.745 35.336C174.591 35.3067 174.352 35.292 174.03 35.292C173.832 35.292 173.707 35.3067 173.656 35.336C173.612 35.3653 173.586 35.4387 173.579 35.556L173.524 36.799C173.612 36.799 173.736 36.799 173.898 36.799C174.066 36.799 174.213 36.799 174.338 36.799C174.448 36.799 174.583 36.7953 174.745 36.788C174.906 36.7733 175.053 36.7623 175.185 36.755C175.317 36.7403 175.383 36.733 175.383 36.733L175.471 36.832L175.339 37.624C175.339 37.624 175.273 37.624 175.141 37.624C175.009 37.6167 174.851 37.613 174.668 37.613C174.492 37.6057 174.327 37.602 174.173 37.602C174.041 37.602 173.912 37.6093 173.788 37.624C173.67 37.6313 173.571 37.6423 173.491 37.657C173.476 37.921 173.469 38.1373 173.469 38.306C173.469 38.4747 173.469 38.6177 173.469 38.735C173.469 38.8817 173.48 38.9917 173.502 39.065C173.524 39.1383 173.571 39.1897 173.645 39.219C173.725 39.241 173.85 39.252 174.019 39.252C174.371 39.252 174.635 39.23 174.811 39.186C174.987 39.142 175.111 39.0503 175.185 38.911C175.265 38.7717 175.324 38.5627 175.361 38.284L176.197 38.218L176.285 38.317C176.285 38.317 176.27 38.394 176.241 38.548C176.211 38.702 176.175 38.9037 176.131 39.153C176.094 39.4023 176.061 39.67 176.032 39.956L175.933 40.055C175.933 40.055 175.841 40.0513 175.658 40.044C175.474 40.0367 175.236 40.0293 174.943 40.022C174.657 40.022 174.349 40.0183 174.019 40.011C173.696 40.0037 173.384 40 173.084 40C172.812 40 172.548 40.0073 172.292 40.022C172.042 40.0367 171.841 40.0513 171.687 40.066C171.533 40.0807 171.456 40.088 171.456 40.088ZM177.106 40.066L177.183 39.439C177.418 39.395 177.576 39.3253 177.656 39.23C177.744 39.1273 177.788 38.9587 177.788 38.724L177.799 35.567C177.799 35.3837 177.777 35.2627 177.733 35.204C177.697 35.138 177.627 35.105 177.524 35.105C177.458 35.105 177.389 35.1087 177.315 35.116C177.242 35.116 177.205 35.116 177.205 35.116L177.139 35.039L177.227 34.478C177.315 34.478 177.422 34.4817 177.546 34.489C177.678 34.489 177.818 34.489 177.964 34.489C178.118 34.489 178.261 34.489 178.393 34.489C178.481 34.489 178.602 34.489 178.756 34.489C178.918 34.4817 179.079 34.478 179.24 34.478C179.402 34.4707 179.537 34.4633 179.647 34.456C179.765 34.4487 179.823 34.445 179.823 34.445C180.271 34.445 180.637 34.4963 180.923 34.599C181.217 34.6943 181.448 34.8263 181.616 34.995C181.785 35.1563 181.902 35.336 181.968 35.534C182.034 35.732 182.067 35.93 182.067 36.128C182.067 36.4727 181.965 36.7953 181.759 37.096C181.554 37.3967 181.286 37.6387 180.956 37.822C180.626 38.0053 180.267 38.097 179.878 38.097H179.108L179.097 38.669C179.097 38.867 179.108 39.0173 179.13 39.12C179.152 39.2227 179.193 39.2923 179.251 39.329C179.317 39.3657 179.409 39.384 179.526 39.384C179.607 39.384 179.691 39.384 179.779 39.384C179.867 39.3767 179.911 39.373 179.911 39.373L179.944 39.428L179.856 40.022C179.856 40.022 179.809 40.0183 179.713 40.011C179.625 40.011 179.515 40.011 179.383 40.011C179.251 40.011 179.116 40.0073 178.976 40C178.844 40 178.738 40 178.657 40C178.54 40 178.393 40 178.217 40C178.049 40.0073 177.88 40.0147 177.711 40.022C177.543 40.0367 177.4 40.0477 177.282 40.055C177.165 40.0623 177.106 40.066 177.106 40.066ZM179.889 37.36C180.403 37.2427 180.659 36.8723 180.659 36.249C180.659 35.9117 180.56 35.666 180.362 35.512C180.164 35.3507 179.845 35.27 179.405 35.27C179.325 35.27 179.273 35.281 179.251 35.303C179.229 35.3177 179.215 35.3617 179.207 35.435C179.193 35.7137 179.178 36.0107 179.163 36.326C179.149 36.634 179.138 36.9457 179.13 37.261L179.889 37.36ZM182.574 40.088L182.64 39.45C182.889 39.4133 183.058 39.3437 183.146 39.241C183.234 39.1383 183.278 38.9587 183.278 38.702L183.289 35.567C183.289 35.3763 183.27 35.2517 183.234 35.193C183.197 35.1343 183.12 35.105 183.003 35.105C182.951 35.105 182.893 35.1087 182.827 35.116C182.768 35.116 182.739 35.116 182.739 35.116L182.673 35.028L182.75 34.467C182.75 34.467 182.805 34.4707 182.915 34.478C183.025 34.478 183.168 34.478 183.344 34.478C183.527 34.478 183.721 34.4817 183.927 34.489C184.132 34.489 184.323 34.489 184.499 34.489C184.917 34.489 185.302 34.4853 185.654 34.478C186.006 34.4707 186.317 34.4597 186.589 34.445C186.86 34.4303 187.087 34.412 187.271 34.39L187.348 34.489C187.348 34.489 187.333 34.566 187.304 34.72C187.274 34.874 187.241 35.0757 187.205 35.325C187.175 35.567 187.153 35.8237 187.139 36.095L186.226 36.15C186.226 36.15 186.229 36.1097 186.237 36.029C186.244 35.941 186.248 35.8677 186.248 35.809C186.248 35.655 186.222 35.545 186.171 35.479C186.119 35.4057 186.017 35.358 185.863 35.336C185.709 35.3067 185.47 35.292 185.148 35.292C184.95 35.292 184.825 35.3067 184.774 35.336C184.73 35.3653 184.704 35.4387 184.697 35.556L184.642 36.799C184.73 36.799 184.854 36.799 185.016 36.799C185.184 36.799 185.331 36.799 185.456 36.799C185.566 36.799 185.701 36.7953 185.863 36.788C186.024 36.7733 186.171 36.7623 186.303 36.755C186.435 36.7403 186.501 36.733 186.501 36.733L186.589 36.832L186.457 37.624C186.457 37.624 186.391 37.624 186.259 37.624C186.127 37.6167 185.969 37.613 185.786 37.613C185.61 37.6057 185.445 37.602 185.291 37.602C185.159 37.602 185.03 37.6093 184.906 37.624C184.788 37.6313 184.689 37.6423 184.609 37.657C184.594 37.921 184.587 38.1373 184.587 38.306C184.587 38.4747 184.587 38.6177 184.587 38.735C184.587 38.8817 184.598 38.9917 184.62 39.065C184.642 39.1383 184.689 39.1897 184.763 39.219C184.843 39.241 184.968 39.252 185.137 39.252C185.489 39.252 185.753 39.23 185.929 39.186C186.105 39.142 186.229 39.0503 186.303 38.911C186.383 38.7717 186.442 38.5627 186.479 38.284L187.315 38.218L187.403 38.317C187.403 38.317 187.388 38.394 187.359 38.548C187.329 38.702 187.293 38.9037 187.249 39.153C187.212 39.4023 187.179 39.67 187.15 39.956L187.051 40.055C187.051 40.055 186.959 40.0513 186.776 40.044C186.592 40.0367 186.354 40.0293 186.061 40.022C185.775 40.022 185.467 40.0183 185.137 40.011C184.814 40.0037 184.502 40 184.202 40C183.93 40 183.666 40.0073 183.41 40.022C183.16 40.0367 182.959 40.0513 182.805 40.066C182.651 40.0807 182.574 40.088 182.574 40.088ZM190.964 40.066L190.909 40L190.953 39.428C191.151 39.406 191.297 39.3877 191.393 39.373C191.488 39.351 191.55 39.3217 191.58 39.285C191.616 39.241 191.635 39.186 191.635 39.12C191.635 39.0833 191.631 39.0467 191.624 39.01C191.616 38.966 191.605 38.9183 191.591 38.867L191.437 38.295C191.319 38.2877 191.18 38.284 191.019 38.284C190.865 38.284 190.736 38.284 190.634 38.284C190.502 38.284 190.359 38.2913 190.205 38.306C190.051 38.3133 189.915 38.3243 189.798 38.339L189.6 38.911C189.585 38.9697 189.574 39.0173 189.567 39.054C189.559 39.0907 189.556 39.1237 189.556 39.153C189.556 39.2483 189.581 39.3143 189.633 39.351C189.691 39.3803 189.798 39.395 189.952 39.395H190.293L190.348 39.472L190.282 40.044C190.282 40.044 190.208 40.0403 190.062 40.033C189.922 40.0257 189.746 40.0183 189.534 40.011C189.328 40.0037 189.13 40 188.94 40C188.778 40 188.61 40 188.434 40C188.258 40.0073 188.111 40.011 187.994 40.011C187.884 40.0183 187.829 40.022 187.829 40.022L187.895 39.406C188.027 39.384 188.133 39.3327 188.214 39.252C188.302 39.164 188.382 39.0357 188.456 38.867L190.04 34.533L191.657 34.39L191.767 34.456C191.767 34.456 191.789 34.533 191.833 34.687C191.877 34.8337 191.932 35.0353 191.998 35.292C192.071 35.5487 192.152 35.8347 192.24 36.15C192.328 36.458 192.416 36.777 192.504 37.107C192.599 37.437 192.691 37.7523 192.779 38.053C192.874 38.3463 192.958 38.603 193.032 38.823C193.098 39.021 193.178 39.164 193.274 39.252C193.369 39.34 193.512 39.3913 193.703 39.406L193.747 39.472L193.681 40.022C193.681 40.022 193.615 40.0183 193.483 40.011C193.351 40.011 193.193 40.0073 193.01 40C192.834 40 192.676 40 192.537 40C192.28 40 192.031 40.0037 191.789 40.011C191.547 40.0257 191.349 40.0367 191.195 40.044C191.041 40.0587 190.964 40.066 190.964 40.066ZM190.04 37.514H190.634C190.722 37.514 190.824 37.5103 190.942 37.503C191.066 37.4957 191.176 37.4883 191.272 37.481L190.777 35.699H190.645L190.04 37.514ZM194.481 40.066L194.547 39.428C194.818 39.406 195.016 39.373 195.141 39.329C195.265 39.2777 195.35 39.197 195.394 39.087C195.438 38.9697 195.46 38.801 195.46 38.581V35.259C195.247 35.259 195.078 35.2737 194.954 35.303C194.829 35.325 194.73 35.3763 194.657 35.457C194.583 35.5303 194.528 35.6403 194.492 35.787C194.455 35.9337 194.422 36.1353 194.393 36.392L193.557 36.447C193.557 36.447 193.56 36.3883 193.568 36.271C193.582 36.1463 193.593 35.9887 193.601 35.798C193.615 35.6 193.626 35.391 193.634 35.171C193.648 34.9437 193.656 34.72 193.656 34.5L193.766 34.39L194.701 34.489H197.539L198.496 34.39L198.606 34.5C198.606 34.72 198.609 34.9437 198.617 35.171C198.624 35.391 198.631 35.5963 198.639 35.787C198.653 35.9703 198.664 36.117 198.672 36.227C198.679 36.337 198.683 36.392 198.683 36.392L197.847 36.447C197.817 36.1683 197.784 35.952 197.748 35.798C197.711 35.644 197.66 35.5303 197.594 35.457C197.528 35.3763 197.436 35.325 197.319 35.303C197.201 35.2737 197.044 35.259 196.846 35.259C196.831 35.4497 196.816 35.6843 196.802 35.963C196.794 36.2417 196.787 36.5423 196.78 36.865C196.772 37.1803 196.765 37.503 196.758 37.833C196.758 38.163 196.758 38.482 196.758 38.79C196.758 39.0027 196.794 39.153 196.868 39.241C196.941 39.329 197.069 39.373 197.253 39.373C197.377 39.373 197.487 39.3693 197.583 39.362C197.678 39.3547 197.726 39.351 197.726 39.351L197.759 39.395L197.682 40.044C197.682 40.044 197.619 40.0403 197.495 40.033C197.377 40.0257 197.227 40.0183 197.044 40.011C196.868 40.011 196.688 40.0073 196.505 40C196.329 40 196.178 40 196.054 40C195.922 40 195.768 40 195.592 40C195.416 40.0073 195.24 40.0147 195.064 40.022C194.895 40.0367 194.756 40.0477 194.646 40.055C194.536 40.0623 194.481 40.066 194.481 40.066Z" fill="black"/>
<defs>
<clipPath id="clip0_603_1212">
<rect width="50" height="50" fill="white"/>
</clipPath>
</defs>
</svg>
