<svg width="100" height="100" viewBox="0 0 100 100" fill="none" xmlns="http://www.w3.org/2000/svg">
<path d="M10.9996 28.5001L3.4996 36.0001C2.9996 40.5002 5.4996 41 6.9996 41.5C8.4996 42 18.4996 41 19.9996 42C21.4996 43 24.4996 54 25.4996 57C26.4996 60 34.9996 67.5 35.9996 70C36.7996 72 37.6663 80.5 37.9996 84.5H43.4996V64C43.4996 63 44.4996 62.5 45.9996 62.5H61.4996C67.4996 67 73.4996 68 78.9996 63.5L82.9996 84.5H88.4996V39.5C88.3329 37.3333 87.1996 32.4 83.9996 30C86.9996 30.5 91.9996 33.5 91.9996 39V61.5C92.6663 60.6667 94.2996 58.6 95.4996 57C96.9996 55 96.4996 52.5 94.4996 51V39.5C94.4996 38 92.9996 27.5 82.9996 27.5C74.9996 27.5 48.3329 27.1667 35.9996 27C34.9996 27 32.7996 26.9 31.9996 26.5C28.4996 24.4999 29.9996 19.0001 29.4996 18.5004C28.9996 18.0008 26.4996 18.0001 24.4996 22.0001C24.4996 21.5001 21.4996 17.5001 16.4996 19.0001C18.4996 19.0001 19.9996 19.5001 20.9996 22.5001C16.9996 23.0001 12.4996 27.0001 10.9996 28.5001Z" fill="white"/>
</svg>
