<svg width="100" height="100" viewBox="0 0 100 100" fill="none" xmlns="http://www.w3.org/2000/svg">
<path fill-rule="evenodd" clip-rule="evenodd" d="M29.6395 40.0459C27.7435 37.2971 29.026 33.1867 30.2002 30.3965C31.2627 27.8713 32.7256 25.25 34.2748 22.9624L34.7614 22.2437L35.6482 22.1884C37.3266 22.0841 38.9947 21.9325 40.6675 21.77C41.9131 21.6489 43.1597 21.5259 44.4103 21.4697C47.4857 21.331 50.3055 21.6858 53.3132 22.2944C55.6343 22.764 57.9408 23.3481 60.2247 23.9622C62.3532 24.5345 64.4741 25.1389 66.5889 25.7594C66.6879 26.182 72.7158 22.5594 72.8985 22.9624L86.6 54.1757L80.8293 57.5114C80.2613 57.8915 79.6976 58.2775 79.1359 58.6662L77.7502 59.625L76.7002 58.3268C75.2051 56.4771 73.5766 54.6919 71.9503 52.9488C67.4848 48.1618 58.5952 38.2898 53.1816 36.0918C50.9176 35.1727 48.7858 35.0137 46.471 35.8429C44.4488 36.5675 42.5851 37.9121 40.8598 39.1399C37.4847 41.5418 32.6628 44.4274 29.6395 40.0459Z" fill="white"/>
<path fill-rule="evenodd" clip-rule="evenodd" d="M79.0179 64.0067C78.8333 64.9022 78.3852 65.7285 77.6999 66.3609C76.9101 67.0894 75.893 67.4839 74.8178 67.6037C73.4965 67.7511 72.1359 67.5027 70.8664 67.0794L61.1185 56.768C60.7887 56.4192 60.2287 56.3954 59.8686 56.714C59.5082 57.0329 59.4833 57.5742 59.8128 57.9227L69.8952 68.5879C70.0038 69.45 69.9653 70.3288 69.6451 71.1283C69.3375 71.8948 68.7731 72.5047 68.0274 72.894C67.296 73.2756 66.458 73.4331 65.6319 73.4347C65.1024 73.4357 64.5424 73.3755 63.995 73.2484L52.9627 61.8612C52.6269 61.5165 52.0652 61.4999 51.7088 61.8242C51.352 62.1488 51.3351 62.6917 51.6706 63.0363L61.9336 73.6298C61.079 77.6586 57.5777 78.6578 54.0522 76.9256L53.812 76.8074L52.1495 75.2462C52.1376 75.233 52.1256 75.2205 52.1127 75.2079L44.4783 67.7514C44.1329 67.4158 43.5715 67.4143 43.2244 67.7484C42.8776 68.082 42.876 68.6245 43.2211 68.9601L49.8477 75.4322L48.801 75.7068C47.5774 76.0277 46.3231 76.3009 45.0629 76.4461C43.2164 76.6588 41.0644 76.6362 39.5006 75.5272C37.6175 74.192 35.7558 72.6663 33.9472 71.2343C30.9813 68.8855 28.0304 66.518 25.0832 64.1469C21.1418 60.9762 17.2076 57.796 13.2793 54.6093L22.2326 22.3026C25.3057 22.4038 28.3852 22.4417 31.4593 22.3668L32.5727 22.3399C31.0245 24.6657 29.6284 27.1938 28.5532 29.7482C27.1203 33.1531 25.8674 37.6762 28.1603 40.9995C31.0906 45.2471 35.5014 44.4478 39.4188 42.1592C40.2791 41.6566 41.1042 41.1001 41.9134 40.5242C43.4885 39.4037 45.2453 38.1153 47.0884 37.455C48.9767 36.7786 50.6552 36.9305 52.493 37.6769C54.0631 38.314 55.7482 39.5832 57.0496 40.6331C61.4215 44.1603 78.2218 61.7337 79.0179 64.0067Z" fill="white"/>
</svg>
