<svg class="SvgLidBox" width="590" height="542" viewBox="-295 0 590 542" xmlns="http://www.w3.org/2000/svg"><path class="bend" fill="none" stroke="#ff00ff" stroke-width="0.1" d="M -91,0 v 100"></path><path class="bend" fill="none" stroke="#ff00ff" stroke-width="0.1" d="M 91,0 v 100"></path><path class="bend" fill="none" stroke="#ff00ff" stroke-width="0.1" d="M -92,100 h 184"></path><path class="bend" fill="none" stroke="#ff00ff" stroke-width="0.1" d="M -92,100 v 24"></path><path class="bend" fill="none" stroke="#ff00ff" stroke-width="0.1" d="M -92,148 v 24"></path><path class="bend" fill="none" stroke="#ff00ff" stroke-width="0.1" d="M -92,196 v 24"></path><path class="bend" fill="none" stroke="#ff00ff" stroke-width="0.1" d="M -191,100 v 120"></path><path class="bend" fill="none" stroke="#ff00ff" stroke-width="0.1" d="M -193,101 v 118"></path><path class="bend" fill="none" stroke="#ff00ff" stroke-width="0.1" d="M 92,100 v 24"></path><path class="bend" fill="none" stroke="#ff00ff" stroke-width="0.1" d="M 92,148 v 24"></path><path class="bend" fill="none" stroke="#ff00ff" stroke-width="0.1" d="M 92,196 v 24"></path><path class="bend" fill="none" stroke="#ff00ff" stroke-width="0.1" d="M 191,100 v 120"></path><path class="bend" fill="none" stroke="#ff00ff" stroke-width="0.1" d="M 193,101 v 118"></path><path class="bend" fill="none" stroke="#ff00ff" stroke-width="0.1" d="M -91,220 h 182"></path><path class="bend" fill="none" stroke="#ff00ff" stroke-width="0.1" d="M -91,220 v 100"></path><path class="bend" fill="none" stroke="#ff00ff" stroke-width="0.1" d="M 91,220 v 100"></path><path class="bend" fill="none" stroke="#ff00ff" stroke-width="0.1" d="M -90,321 h 180"></path><path class="bend" fill="none" stroke="#ff00ff" stroke-width="0.1" d="M -90,321 v 120"></path><path class="bend" fill="none" stroke="#ff00ff" stroke-width="0.1" d="M 90,321 v 120"></path><path class="bend" fill="none" stroke="#ff00ff" stroke-width="0.1" d="M -90,441 h 180"></path><path class="bend" fill="none" stroke="#ff00ff" stroke-width="0.1" d="M -91,442 v 100"></path><path class="bend" fill="none" stroke="#ff00ff" stroke-width="0.1" d="M 91,442 v 100"></path><path class="cut" fill="none" stroke="#ff0000" stroke-width="0.1" d="M -92,124 h 1.5 v 24 h -1.5 Z"></path><path class="cut" fill="none" stroke="#ff0000" stroke-width="0.1" d="M -92,172 h 1.5 v 24 h -1.5 Z"></path><path class="cut" fill="none" stroke="#ff0000" stroke-width="0.1" d="M 92,124 h -1.5 v 24 h 1.5 Z"></path><path class="cut" fill="none" stroke="#ff0000" stroke-width="0.1" d="M 92,172 h -1.5 v 24 h 1.5 Z"></path><path class="cut" fill="none" stroke="#ff0000" stroke-width="0.1" d="M -91,0 h -60 v 99 h 59 l 1,1 h -100 l -2,1 h -100 v 23 h -2 v 24 h 2 v 24 h -2 v 24 h 2 v 23 h 100 l 2,1 h 100 l -1,1 h -59 v 99 h 60 l 1,1 l -40,14 l -10,10 v 72 l 10,10 l 40,14 l -1,1 h -40 l -10,10 v 10 l 50,80 h 182 l 50,-80 v -10 l -10,-10 h -40 l -1,-1  l 40,-14 l 10,-10 v -72 l -10,-10 l -40,-14 l 1,-1 h 60 v -99 h -59 l -1,-1 h 100 l 2,-1 h 100 v -23 h 2 v -24 h -2 v -24 h 2 v -24 h -2 v -23 h -100 l -2,-1 h -100 l 1,-1 h 59 v -99 h -60h -9 l -9,50 h -144 l -9,-50 Z"></path></svg>