<svg class="SvgLid" width="594" height="546" viewBox="-297 0 594 546" xmlns="http://www.w3.org/2000/svg"><path class="bend" fill="none" stroke="#ff00ff" stroke-width="0.1" d="M -93,0 v 80"></path><path class="bend" fill="none" stroke="#ff00ff" stroke-width="0.1" d="M 93,0 v 80"></path><path class="bend" fill="none" stroke="#ff00ff" stroke-width="0.1" d="M -94,80 h 188"></path><path class="bend" fill="none" stroke="#ff00ff" stroke-width="0.1" d="M -94,80 v 122"></path><path class="bend" fill="none" stroke="#ff00ff" stroke-width="0.1" d="M -173,80 v 122"></path><path class="bend" fill="none" stroke="#ff00ff" stroke-width="0.1" d="M -175,81 v 120"></path><path class="bend" fill="none" stroke="#ff00ff" stroke-width="0.1" d="M 94,80 v 122"></path><path class="bend" fill="none" stroke="#ff00ff" stroke-width="0.1" d="M 173,80 v 122"></path><path class="bend" fill="none" stroke="#ff00ff" stroke-width="0.1" d="M 175,81 v 120"></path><path class="bend" fill="none" stroke="#ff00ff" stroke-width="0.1" d="M -93,202 h 186"></path><path class="bend" fill="none" stroke="#ff00ff" stroke-width="0.1" d="M -93,202 v 80"></path><path class="bend" fill="none" stroke="#ff00ff" stroke-width="0.1" d="M 93,202 v 80"></path><path class="cut" fill="none" stroke="#ff0000" stroke-width="0.1" d="M -93,0 h -61 v 79 h 60 l 1,1 h -80 l -2,1 h -80 v 120 h 80 l 2,1 h 80 l -1,1 h -60 v 79 h 61 l 1,1 h 184 l 1,-1 h 61 v -79 h -60 l -1,-1 h 80 l 2,-1 h 80 v -120 h -80 l -2,-1 h -80 l 1,-1 h 60 v -79 h -61h -184"></path></svg>